<?xml version="1.0" encoding="utf-8"?>
<!-- Generator: Adobe Illustrator 21.0.2, SVG Export Plug-In . SVG Version: 6.00 Build 0)  -->
<svg version="1.1" id="Calque_1" xmlns="http://www.w3.org/2000/svg" xmlns:xlink="http://www.w3.org/1999/xlink" x="0px" y="0px"
	 viewBox="0 0 90 112.5" style="enable-background:new 0 0 90 112.5;" xml:space="preserve">
<path d="M39,17.9c-1.1-0.8-1.8-2.3-1.4-3.4c0.4-1.1,1.6-1.4,2.7-0.7c0.5,0.4,4.6,5.2,4.6,5.2l-0.3,0.8C44.6,19.8,39.4,18.2,39,17.9z
	 M57.6,20c-1-0.9-1.3-2.4-0.7-3.4c0.6-0.9,2-1,3-0.1c0.5,0.4,3.6,5.6,3.6,5.6l-0.4,0.6C63.1,22.9,58,20.4,57.6,20z M31.3,29.7
	c-1.5-0.1-2.3-0.9-1.7-1.9c0.5-1,2.1-1.7,3.6-1.7c0.7,0,5.9,1.8,5.9,1.8l-0.4,0.7C38.7,28.7,31.9,29.8,31.3,29.7z M48.7,24.2
	c-1.1-0.6-1.3-1.8-0.2-2.6c1-0.8,2.7-1,3.9-0.4c0.5,0.3,3.6,4,3.6,4l-0.7,0.6C55.2,25.8,49.1,24.4,48.7,24.2z M67.3,29
	c-1.4,0.3-1.8,1-1.7,1.3c0.1,0.3,0.8,0.7,2.2,0.4c1.4-0.3,1.8-1,1.7-1.3C69.4,29.2,68.7,28.7,67.3,29z M58.7,30
	c-1.4-0.1-2.1-1.1-1.7-2.1c0.4-1,1.9-1.8,3.2-1.6c0.6,0.1,5.1,2.1,5.5,2.2c0.3-0.2,0.8-0.4,1.3-0.5c3.4-0.8,4.7,1.7,2.6,3.1
	c3.9,8.3,4.8,15.6,2.8,21.6l1.9,1.2c2.5,1.3,5.6,4.1,9.4,8.3c0.6,2.3,0.4,5.3-0.6,8.7l-1.7,3.6c0.5,2-0.5,4.5-2.9,7.5
	c0.3,1.6-0.4,3.1-2,4.3c-2.2,2.1-7.1,4.2-15.9,5.8c1.1,1.4,3.1,2.6,6.7,2.5c5.9,0.6,8,2,6.3,4.4c-6.3-1-11.1-1.3-14.6-1L54.2,94
	c-11.8-9.5-19.5-15-22.9-16.6L3.4,65.6l7.3-14.1l0.5-1.4l17.3,7.3c1.6,0.7,9.5-0.2,17.4-5.2l4.4-0.8c3.2,1.8,5.8,1.8,11.9,2
	c2.8,0.7,5.4-0.4,9.1-1c1.9-5.8,1.1-12.7-2.7-20.8c-0.2,0.1-0.3,0.1-0.5,0.1c-1.4,0.3-2.5,0.1-3.1-0.4c-1,1-4,4.2-4.4,4.4
	c-1.2,0.7-2.5,0.5-3-0.6c-0.5-1.1,0.1-2.5,1.3-3.2c0.4-0.3,4.1-1.2,5.5-1.5c-0.1-0.4,0-0.8,0.3-1.1C63.2,29.5,59.1,30.1,58.7,30z
	 M71,56c-1.6,2.9-4,5.5-7.2,7.7l-0.7-0.8c1.8-1.3,3.3-2.6,4.6-4.1c-2.8,1.6-7.2,2.5-11.5,1.1l-0.8,2.9c3,4.5,1.5,6.3,6,8.6
	c5.1-0.6,9.6,0,13.4-1.6c0-2.5,0.5-4.7,1.4-6.4C73.4,60.4,71.7,57.9,71,56z M65.4,86.3c0.6,1.1,4.5,0.3,10-2.7L65.4,86.3z
	 M66.3,80.2c0.8,1.4,6,0,12.9-4.4L66.3,80.2z"/>
</svg>
