<?xml version="1.0" encoding="utf-8"?>
<!-- Generator: Adobe Illustrator 21.0.2, SVG Export Plug-In . SVG Version: 6.00 Build 0)  -->
<svg version="1.1"
	 id="Calque_1" xmlns:cc="http://creativecommons.org/ns#" xmlns:dc="http://purl.org/dc/elements/1.1/" xmlns:inkscape="http://www.inkscape.org/namespaces/inkscape" xmlns:rdf="http://www.w3.org/1999/02/22-rdf-syntax-ns#" xmlns:sodipodi="http://sodipodi.sourceforge.net/DTD/sodipodi-0.dtd" xmlns:svg="http://www.w3.org/2000/svg"
	 xmlns="http://www.w3.org/2000/svg" xmlns:xlink="http://www.w3.org/1999/xlink" x="0px" y="0px" viewBox="0 0 800 1000"
	 style="enable-background:new 0 0 800 1000;" xml:space="preserve">
<g>
	<path d="M501.1,257.4c5.3,0,10.5-0.9,15.4-2.6c13.1,15.7,32.6,25.1,53.5,25.1c7.8,0,15.5-1.3,22.9-3.9
		c18.9,21.7,46.4,34.4,75.5,34.4c55.2,0,100.1-44.9,100.1-100.1s-44.9-100.1-100.1-100.1c-29.1,0-56.6,12.7-75.5,34.4
		c-7.3-2.6-15.1-3.9-22.9-3.9c-20.9,0-40.5,9.4-53.5,25.1c-4.9-1.7-10.1-2.6-15.4-2.6c-26,0-47.1,21.1-47.1,47.1
		S475.2,257.4,501.1,257.4z M684.6,248.9c12.4,0,22.5-10.1,22.5-22.5c0-7.6,6.2-13.9,13.9-13.9c7.7,0,13.9,6.2,13.9,13.9
		c0,27.7-22.5,50.2-50.2,50.2c-7.7,0-13.9-6.2-13.9-13.9C670.7,255.1,676.9,248.9,684.6,248.9z"/>
	<path d="M673,472.4c0-7.7-6.2-13.9-13.9-13.9H140.9c-7.7,0-13.9,6.2-13.9,13.9v103H673L673,472.4L673,472.4z M220.2,530.8h-11.8
		c-7.6,0-13.9-6.2-13.9-13.9c0-7.7,6.2-13.9,13.9-13.9h11.8c7.6,0,13.9,6.2,13.9,13.9C234.1,524.6,227.9,530.8,220.2,530.8z
		 M282.1,530.8h-11.8c-7.7,0-13.9-6.2-13.9-13.9c0-7.7,6.2-13.9,13.9-13.9h11.8c7.7,0,13.9,6.2,13.9,13.9
		C296,524.6,289.8,530.8,282.1,530.8z M344,530.8h-11.8c-7.6,0-13.9-6.2-13.9-13.9c0-7.7,6.2-13.9,13.9-13.9H344
		c7.6,0,13.9,6.2,13.9,13.9C357.9,524.6,351.6,530.8,344,530.8z M405.9,530.8h-11.8c-7.7,0-13.9-6.2-13.9-13.9
		c0-7.7,6.2-13.9,13.9-13.9h11.8c7.7,0,13.9,6.2,13.9,13.9C419.7,524.6,413.5,530.8,405.9,530.8z M467.8,530.8H456
		c-7.6,0-13.9-6.2-13.9-13.9c0-7.7,6.2-13.9,13.9-13.9h11.8c7.6,0,13.9,6.2,13.9,13.9C481.6,524.6,475.4,530.8,467.8,530.8z
		 M529.7,530.8h-11.8c-7.7,0-13.9-6.2-13.9-13.9c0-7.7,6.2-13.9,13.9-13.9h11.8c7.7,0,13.9,6.2,13.9,13.9
		C543.5,524.6,537.3,530.8,529.7,530.8z M591.6,530.8h-11.8c-7.7,0-13.9-6.2-13.9-13.9c0-7.7,6.2-13.9,13.9-13.9h11.8
		c7.7,0,13.9,6.2,13.9,13.9C605.4,524.6,599.2,530.8,591.6,530.8z"/>
	<path d="M419.5,269.9c-34.1,0-62.7,24.4-69.1,56.7h138.3C482.2,294.3,453.7,269.9,419.5,269.9z"/>
	<rect x="349" y="354.3" width="141" height="76.5"/>
	<path d="M754.7,603.1H45.3c-4.9,0-9.5,2.6-11.9,6.8c-2.5,4.2-2.5,9.5-0.2,13.8l116.4,208.8c2.4,4.4,7.1,7.1,12.1,7.1h593
		c7.7,0,13.9-6.2,13.9-13.9V616.9C768.6,609.3,762.4,603.1,754.7,603.1z M323.1,635.6h11.8c7.6,0,13.9,6.2,13.9,13.9
		s-6.2,13.9-13.9,13.9h-11.8c-7.6,0-13.9-6.2-13.9-13.9S315.4,635.6,323.1,635.6z M178.3,721.3c0-7.7,6.2-13.9,13.9-13.9h312.9
		c7.7,0,13.9,6.2,13.9,13.9c0,7.7-6.2,13.9-13.9,13.9H192.2C184.5,735.2,178.3,729,178.3,721.3z M334.8,807h-11.8
		c-7.6,0-13.9-6.2-13.9-13.9c0-7.7,6.2-13.9,13.9-13.9h11.8c7.6,0,13.9,6.2,13.9,13.9C348.7,800.8,342.5,807,334.8,807z M627.8,807
		H382.4c-7.7,0-13.9-6.2-13.9-13.9c0-7.7,6.2-13.9,13.9-13.9h245.4c7.7,0,13.9,6.2,13.9,13.9C641.6,800.8,635.4,807,627.8,807z
		 M531.4,721.3c0-7.7,6.2-13.9,13.9-13.9h11.8c7.7,0,13.9,6.2,13.9,13.9c0,7.7-6.2,13.9-13.9,13.9h-11.8
		C537.6,735.2,531.4,729,531.4,721.3z M627.8,663.3H382.4c-7.7,0-13.9-6.2-13.9-13.9s6.2-13.9,13.9-13.9h245.4
		c7.7,0,13.9,6.2,13.9,13.9S635.4,663.3,627.8,663.3z"/>
</g>
</svg>
