<?xml version="1.0" encoding="utf-8"?>
<!-- Generator: Adobe Illustrator 21.0.2, SVG Export Plug-In . SVG Version: 6.00 Build 0)  -->
<svg version="1.1" id="Calque_1" xmlns="http://www.w3.org/2000/svg" xmlns:xlink="http://www.w3.org/1999/xlink" x="0px" y="0px"
	 viewBox="0 0 100 125" style="enable-background:new 0 0 100 125;" xml:space="preserve">
<title>Umbrella Rain</title>
<desc>Created using Figma</desc>
<g transform="translate(30 378)">
	<g>
		<g>
			<g transform="translate(-25 -373)">
				<path id="f" d="M-24-318c0-24.3,19.7-44,44-44v-2c-25.4,0-46,20.6-46,46H-24z M20-362c24.3,0,44,19.7,44,44h2
					c0-25.4-20.6-46-46-46V-362z"/>
			</g>
		</g>
		<g>
			<g transform="translate(-25 -335)">
				<path id="a" d="M-24-317.5c0-3.6,2.9-6.5,6.5-6.5v-2c-4.7,0-8.5,3.8-8.5,8.5H-24z M-17.5-324c3.6,0,6.5,2.9,6.5,6.5h2
					c0-4.7-3.8-8.5-8.5-8.5V-324z"/>
			</g>
		</g>
		<g>
			<g transform="translate(-10 -335)">
				<path id="a_1_" d="M-9-317.5c0-3.6,2.9-6.5,6.5-6.5v-2c-4.7,0-8.5,3.8-8.5,8.5H-9z M-2.5-324c3.6,0,6.5,2.9,6.5,6.5h2
					c0-4.7-3.8-8.5-8.5-8.5V-324z"/>
			</g>
		</g>
		<g>
			<g transform="translate(5 -335)">
				<path id="a_2_" d="M6-317.5c0-3.6,2.9-6.5,6.5-6.5v-2c-4.7,0-8.5,3.8-8.5,8.5H6z M12.5-324c3.6,0,6.5,2.9,6.5,6.5h2
					c0-4.7-3.8-8.5-8.5-8.5V-324z"/>
			</g>
		</g>
		<g>
			<g transform="translate(20 -335)">
				<path id="a_3_" d="M21-317.5c0-3.6,2.9-6.5,6.5-6.5v-2c-4.7,0-8.5,3.8-8.5,8.5H21z M27.5-324c3.6,0,6.5,2.9,6.5,6.5h2
					c0-4.7-3.8-8.5-8.5-8.5V-324z"/>
			</g>
		</g>
		<g>
			<g transform="translate(35 -335)">
				<path id="a_4_" d="M36-317.5c0-3.6,2.9-6.5,6.5-6.5v-2c-4.7,0-8.5,3.8-8.5,8.5H36z M42.5-324c3.6,0,6.5,2.9,6.5,6.5h2
					c0-4.7-3.8-8.5-8.5-8.5V-324z"/>
			</g>
		</g>
		<g>
			<g transform="translate(50 -335)">
				<path id="a_5_" d="M51-317.5c0-3.6,2.9-6.5,6.5-6.5v-2c-4.7,0-8.5,3.8-8.5,8.5H51z M57.5-324c3.6,0,6.5,2.9,6.5,6.5h2
					c0-4.7-3.8-8.5-8.5-8.5V-324z"/>
			</g>
		</g>
		<g>
			<g transform="translate(4.5 -373.5)">
				<path id="e" d="M21-282.6v-80.9h-2v80.9H21z M19-282.6c0,2.9-0.9,4.9-2.1,6.2c-1.2,1.2-2.9,1.8-4.6,1.7
					c-3.4-0.2-6.8-2.9-6.8-7.9h-2c0,6.1,4.3,9.7,8.7,9.9c2.2,0.1,4.4-0.6,6.1-2.3c1.7-1.7,2.7-4.2,2.7-7.6H19z"/>
			</g>
		</g>
		<g>
			<g transform="translate(5 -373)">
				<path id="d" d="M6-317.5c0-9.9,2.1-21.1,5-29.9c1.5-4.4,3.1-8.1,4.7-10.7c0.8-1.3,1.6-2.3,2.4-2.9c0.8-0.7,1.4-0.9,1.9-0.9v-2
					c-1.1,0-2.2,0.6-3.2,1.4c-0.9,0.8-1.9,2-2.8,3.4c-1.7,2.8-3.5,6.7-5,11.2c-3,8.9-5.1,20.5-5.1,30.6H6z"/>
			</g>
		</g>
		<g>
			<g transform="matrix(-1 0 0 1 35 -373)">
				<path id="d_1_" d="M34-317.5c0-9.9-2.1-21.1-5-29.9c-1.5-4.4-3.1-8.1-4.7-10.7c-0.8-1.3-1.6-2.3-2.4-2.9
					c-0.8-0.7-1.4-0.9-1.9-0.9v-2c1.1,0,2.2,0.6,3.2,1.4c0.9,0.8,1.9,2,2.8,3.4c1.7,2.8,3.5,6.7,5,11.2c3,8.9,5.1,20.5,5.1,30.6H34z
					"/>
			</g>
		</g>
		<g>
			<g transform="translate(-10 -373)">
				<path id="c" d="M-9-317.5c0-12.8,5.1-23.9,11.4-31.9c3.1-4,6.5-7.2,9.7-9.3c3.2-2.2,6-3.3,7.9-3.3v-2c-2.6,0-5.8,1.4-9.1,3.6
					c-3.3,2.3-6.9,5.6-10.1,9.8c-6.4,8.2-11.8,19.9-11.8,33.1H-9z"/>
			</g>
		</g>
		<g>
			<g transform="matrix(-1 0 0 1 50 -373)">
				<path id="c_1_" d="M49-317.5c0-12.8-5.1-23.9-11.4-31.9c-3.1-4-6.5-7.2-9.7-9.3c-3.2-2.2-6-3.3-7.9-3.3v-2
					c2.6,0,5.8,1.4,9.1,3.6c3.3,2.3,6.9,5.6,10.1,9.8c6.4,8.2,11.8,19.9,11.8,33.1H49z"/>
			</g>
		</g>
		<g>
			<g transform="translate(46 -314)">
				<path id="b" d="M50-304l0.8-0.6l-0.8-1.1l-0.8,1.1L50-304z M53-296.2c0,1.8-1.4,3.2-3,3.2v2c2.8,0,5-2.4,5-5.2H53z M50-293
					c-1.6,0-3-1.4-3-3.2h-2c0,2.8,2.2,5.2,5,5.2V-293z M47-296.2c0-0.4,0.2-1,0.5-1.8c0.4-0.8,0.8-1.6,1.3-2.4
					c0.5-0.8,1-1.5,1.3-2.1c0.2-0.3,0.3-0.5,0.4-0.6c0.1-0.1,0.1-0.1,0.1-0.2c0,0,0,0,0,0c0,0,0,0,0,0c0,0,0,0,0,0c0,0,0,0,0,0
					c0,0,0,0,0,0c0,0,0,0-0.8-0.6s-0.8-0.6-0.8-0.6c0,0,0,0,0,0c0,0,0,0,0,0c0,0,0,0,0,0c0,0,0,0,0,0c0,0,0,0,0,0
					c0,0-0.1,0.1-0.1,0.2c-0.1,0.2-0.3,0.4-0.5,0.7c-0.4,0.6-0.9,1.3-1.4,2.2c-0.5,0.8-1,1.8-1.4,2.7c-0.4,0.9-0.7,1.8-0.7,2.6H47z
					 M50-304c-0.8,0.6-0.8,0.6-0.8,0.6c0,0,0,0,0,0c0,0,0,0,0,0c0,0,0,0,0,0c0,0,0,0,0,0c0,0,0,0,0,0c0,0,0.1,0.1,0.1,0.2
					c0.1,0.2,0.3,0.4,0.4,0.6c0.4,0.5,0.9,1.3,1.3,2.1c0.5,0.8,1,1.7,1.3,2.4c0.4,0.8,0.5,1.4,0.5,1.8h2c0-0.8-0.3-1.8-0.7-2.6
					c-0.4-0.9-0.9-1.8-1.4-2.7c-0.5-0.8-1-1.6-1.4-2.2c-0.2-0.3-0.4-0.5-0.5-0.7c-0.1-0.1-0.1-0.1-0.1-0.2c0,0,0,0,0,0c0,0,0,0,0,0
					c0,0,0,0,0,0c0,0,0,0,0,0c0,0,0,0,0,0C50.8-304.6,50.8-304.6,50-304z"/>
			</g>
		</g>
		<g>
			<g transform="translate(31 -324)">
				<path id="b_1_" d="M35-314l0.8-0.6l-0.8-1.1l-0.8,1.1L35-314z M38-306.2c0,1.8-1.4,3.2-3,3.2v2c2.8,0,5-2.4,5-5.2H38z M35-303
					c-1.6,0-3-1.4-3-3.2h-2c0,2.8,2.2,5.2,5,5.2V-303z M32-306.2c0-0.4,0.2-1,0.5-1.8c0.4-0.8,0.8-1.6,1.3-2.4
					c0.5-0.8,1-1.5,1.3-2.1c0.2-0.3,0.3-0.5,0.4-0.6c0.1-0.1,0.1-0.1,0.1-0.2c0,0,0,0,0,0c0,0,0,0,0,0c0,0,0,0,0,0c0,0,0,0,0,0
					c0,0,0,0,0,0c0,0,0,0-0.8-0.6s-0.8-0.6-0.8-0.6c0,0,0,0,0,0c0,0,0,0,0,0c0,0,0,0,0,0c0,0,0,0,0,0c0,0,0,0,0,0
					c0,0-0.1,0.1-0.1,0.2c-0.1,0.2-0.3,0.4-0.5,0.7c-0.4,0.6-0.9,1.3-1.4,2.2c-0.5,0.8-1,1.8-1.4,2.7c-0.4,0.9-0.7,1.8-0.7,2.6H32z
					 M35-314c-0.8,0.6-0.8,0.6-0.8,0.6c0,0,0,0,0,0c0,0,0,0,0,0c0,0,0,0,0,0c0,0,0,0,0,0c0,0,0,0,0,0c0,0,0.1,0.1,0.1,0.2
					c0.1,0.2,0.3,0.4,0.4,0.6c0.4,0.5,0.9,1.3,1.3,2.1c0.5,0.8,1,1.7,1.3,2.4c0.4,0.8,0.5,1.4,0.5,1.8h2c0-0.8-0.3-1.8-0.7-2.6
					c-0.4-0.9-0.9-1.8-1.4-2.7c-0.5-0.8-1-1.6-1.4-2.2c-0.2-0.3-0.4-0.5-0.5-0.7c-0.1-0.1-0.1-0.1-0.1-0.2c0,0,0,0,0,0c0,0,0,0,0,0
					c0,0,0,0,0,0c0,0,0,0,0,0c0,0,0,0,0,0C35.8-314.6,35.8-314.6,35-314z"/>
			</g>
		</g>
		<g>
			<g transform="translate(1 -314)">
				<path id="b_2_" d="M5-304l0.8-0.6L5-305.7l-0.8,1.1L5-304z M8-296.2c0,1.8-1.4,3.2-3,3.2v2c2.8,0,5-2.4,5-5.2H8z M5-293
					c-1.6,0-3-1.4-3-3.2H0c0,2.8,2.2,5.2,5,5.2V-293z M2-296.2c0-0.4,0.2-1,0.5-1.8c0.4-0.8,0.8-1.6,1.3-2.4c0.5-0.8,1-1.5,1.3-2.1
					c0.2-0.3,0.3-0.5,0.4-0.6c0.1-0.1,0.1-0.1,0.1-0.2c0,0,0,0,0,0c0,0,0,0,0,0c0,0,0,0,0,0c0,0,0,0,0,0c0,0,0,0,0,0
					c0,0,0,0-0.8-0.6s-0.8-0.6-0.8-0.6c0,0,0,0,0,0c0,0,0,0,0,0c0,0,0,0,0,0c0,0,0,0,0,0c0,0,0,0,0,0c0,0-0.1,0.1-0.1,0.2
					c-0.1,0.2-0.3,0.4-0.5,0.7c-0.4,0.6-0.9,1.3-1.4,2.2c-0.5,0.8-1,1.8-1.4,2.7C0.3-298,0-297,0-296.2H2z M5-304
					c-0.8,0.6-0.8,0.6-0.8,0.6c0,0,0,0,0,0c0,0,0,0,0,0c0,0,0,0,0,0c0,0,0,0,0,0c0,0,0,0,0,0c0,0,0.1,0.1,0.1,0.2
					c0.1,0.2,0.3,0.4,0.4,0.6c0.4,0.5,0.9,1.3,1.3,2.1c0.5,0.8,1,1.7,1.3,2.4c0.4,0.8,0.5,1.4,0.5,1.8h2c0-0.8-0.3-1.8-0.7-2.6
					c-0.4-0.9-0.9-1.8-1.4-2.7c-0.5-0.8-1-1.6-1.4-2.2c-0.2-0.3-0.4-0.5-0.5-0.7c-0.1-0.1-0.1-0.1-0.1-0.2c0,0,0,0,0,0c0,0,0,0,0,0
					c0,0,0,0,0,0c0,0,0,0,0,0c0,0,0,0,0,0C5.8-304.6,5.8-304.6,5-304z"/>
			</g>
		</g>
		<g>
			<g transform="translate(-14 -324)">
				<path id="b_3_" d="M-10-314l0.8-0.6l-0.8-1.1l-0.8,1.1L-10-314z M-7-306.2c0,1.8-1.4,3.2-3,3.2v2c2.8,0,5-2.4,5-5.2H-7z
					 M-10-303c-1.6,0-3-1.4-3-3.2h-2c0,2.8,2.2,5.2,5,5.2V-303z M-13-306.2c0-0.4,0.2-1,0.5-1.8c0.4-0.8,0.8-1.6,1.3-2.4
					c0.5-0.8,1-1.5,1.3-2.1c0.2-0.3,0.3-0.5,0.4-0.6c0.1-0.1,0.1-0.1,0.1-0.2c0,0,0,0,0,0c0,0,0,0,0,0c0,0,0,0,0,0c0,0,0,0,0,0
					c0,0,0,0,0,0c0,0,0,0-0.8-0.6s-0.8-0.6-0.8-0.6c0,0,0,0,0,0c0,0,0,0,0,0c0,0,0,0,0,0c0,0,0,0,0,0c0,0,0,0,0,0
					c0,0-0.1,0.1-0.1,0.2c-0.1,0.2-0.3,0.4-0.5,0.7c-0.4,0.6-0.9,1.3-1.4,2.2c-0.5,0.8-1,1.8-1.4,2.7c-0.4,0.9-0.7,1.8-0.7,2.6H-13z
					 M-10-314c-0.8,0.6-0.8,0.6-0.8,0.6c0,0,0,0,0,0c0,0,0,0,0,0c0,0,0,0,0,0c0,0,0,0,0,0c0,0,0,0,0,0c0,0,0.1,0.1,0.1,0.2
					c0.1,0.2,0.3,0.4,0.4,0.6c0.4,0.5,0.9,1.3,1.3,2.1c0.5,0.8,1,1.7,1.3,2.4c0.4,0.8,0.5,1.4,0.5,1.8h2c0-0.8-0.3-1.8-0.7-2.6
					c-0.4-0.9-0.9-1.8-1.4-2.7c-0.5-0.8-1-1.6-1.4-2.2c-0.2-0.3-0.4-0.5-0.5-0.7c-0.1-0.1-0.1-0.1-0.1-0.2c0,0,0,0,0,0c0,0,0,0,0,0
					c0,0,0,0,0,0c0,0,0,0,0,0c0,0,0,0,0,0C-9.2-314.6-9.2-314.6-10-314z"/>
			</g>
		</g>
	</g>
</g>
</svg>
