<?xml version="1.0" encoding="utf-8"?>
<!-- Generator: Adobe Illustrator 21.0.2, SVG Export Plug-In . SVG Version: 6.00 Build 0)  -->
<svg version="1.1" id="Calque_1" xmlns="http://www.w3.org/2000/svg" xmlns:xlink="http://www.w3.org/1999/xlink" x="0px" y="0px"
	 viewBox="0 0 64 80" style="enable-background:new 0 0 64 80;" xml:space="preserve">
<g>
	<g>
		<path d="M32,72C14.3,72,0,57.7,0,40S14.3,8,32,8s32,14.3,32,32S49.7,72,32,72z M62,41H44c-0.5,6.2-5.7,11-12,11s-11.5-4.8-12-11H2
			c0.5,16.1,13.7,29,30,29S61.5,57.1,62,41L62,41z M47,39h10V23.4c-2.6-3.9-6-7.1-10-9.4V39z M45,39L45,39V13c0,0,0,0,0,0
			c-3.9-1.9-8.3-3-13-3s-9.1,1.1-13,3c0,0,0,0,0,0v26h1c0.5-6.2,5.7-11,12-11s11.5,4.8,12,11H45z M59,39h3c-0.1-4.3-1.2-8.4-3-12.1
			V39L59,39z M17,39L17,39V14c-4,2.3-7.4,5.5-10,9.4V39L17,39z M5,39L5,39l0-12.1C3.2,30.6,2.2,34.7,2,39L5,39z M32,50
			c5.5,0,10-4.5,10-10s-4.5-10-10-10s-10,4.5-10,10S26.5,50,32,50z M32,47c-3.9,0-7-3.1-7-7s3.1-7,7-7s7,3.1,7,7S35.9,47,32,47z
			 M32,45c2.8,0,5-2.2,5-5c0-2.8-2.2-5-5-5s-5,2.2-5,5C27,42.8,29.2,45,32,45z M21.9,15.5c0.3-0.1,0.5,0,0.7,0.3
			c0.1,0.3,0,0.5-0.3,0.7c-1.5,0.6-3,1.4-4.4,2.4c-1.4,0.9-2.7,2-3.9,3.2s-2.2,2.5-3.2,3.9c-0.9,1.4-1.7,2.9-2.4,4.4
			c-0.1,0.3-0.4,0.4-0.7,0.3c-0.3-0.1-0.4-0.4-0.3-0.7c0.7-1.6,1.5-3.1,2.5-4.6c1-1.4,2.1-2.8,3.3-4c1.2-1.2,2.6-2.3,4-3.3
			C18.7,17,20.3,16.2,21.9,15.5z M26.8,14c0.3-0.1,0.5,0.1,0.6,0.4c0.1,0.3-0.1,0.5-0.4,0.6c-0.9,0.2-1.8,0.4-2.7,0.7
			c-0.3,0.1-0.5-0.1-0.6-0.3c-0.1-0.3,0.1-0.5,0.3-0.6C25,14.4,25.9,14.2,26.8,14z"/>
	</g>
</g>
</svg>
