<?xml version="1.0" encoding="utf-8"?>
<!-- Generator: Adobe Illustrator 21.0.2, SVG Export Plug-In . SVG Version: 6.00 Build 0)  -->
<svg version="1.1" id="Calque_1" xmlns="http://www.w3.org/2000/svg" xmlns:xlink="http://www.w3.org/1999/xlink" x="0px" y="0px"
	 viewBox="0 0 100 125" style="enable-background:new 0 0 100 125;" xml:space="preserve">
<g>
	<g>
		<path d="M74,90.3c-1.4,0-2.9-0.8-4.7-2.5c-1.6-1.5-7.5-4.1-12.7-6.4c-3.7-1.6-7.3-3.2-9.4-4.4c-5.5-3.1-16.6-11.8-20.3-15.6
			C22.4,56.9,4.5,35.1,5,19.2l0,0c0-0.3,0.2-0.8,0.7-1.2c1-0.7,2.7-0.6,5.3,0.1c8.3,2.4,27.6,17.5,40.9,34
			c6,7.4,11.2,14.2,15.5,19.6c4.9,6.3,8.8,11.3,9.7,12c0.9,0.7,1.3,1.6,1.2,2.6c-0.1,1.2-0.8,2.5-2,3.3C75.6,90.1,74.8,90.3,74,90.3
			z M6.8,19.4C6.5,34.8,24.6,56.5,28.1,60.2c3.6,3.6,14.7,12.3,20,15.3c2.1,1.2,5.6,2.7,9.3,4.4c5.6,2.5,11.4,5,13.2,6.8
			c2.9,2.8,4,2,4.8,1.5c0.7-0.5,1.2-1.2,1.2-1.9c0-0.5-0.2-0.8-0.6-1.2c-1-0.8-3.9-4.5-10-12.3c-4.2-5.4-9.5-12.1-15.5-19.5
			c-14-17.3-33-31.4-40-33.4C7.9,19,7,19.3,6.8,19.4z"/>
	</g>
	<g>
		<path d="M11.4,38.9c-0.3,0-0.6-0.2-0.8-0.5C6.7,31,4.9,24.5,5,19.2c0-0.4,0.2-0.8,0.7-1.2c1-0.7,2.7-0.6,5.3,0.1
			c3,0.9,7.7,3.6,13.1,7.6c0.3,0.2,0.4,0.6,0.3,0.9c-0.9,4.3-3.9,10-12.9,12.3C11.6,38.9,11.5,38.9,11.4,38.9z M6.8,19.4
			C6.7,24.2,8.4,30.1,11.9,37c5.9-1.7,9.5-5.1,10.8-10.2c-5-3.6-9.4-6.1-12.1-6.9C7.9,19,7,19.3,6.8,19.4z"/>
	</g>
	<g>
		<path d="M51.2,52.7c2.2,2.8,4.4,5.5,6.4,8l0,0c-2.8-5.5,0.1-14.8,0.1-14.8c-2.9-3-14.5-2.3-14.5-2.3l0.1,0.1
			C46.1,46.6,48.7,49.6,51.2,52.7z"/>
	</g>
	<g>
		<path d="M41.1,71.9c-2.9-2.1-6.1-4.6-8.7-6.7l0,0c0,0-0.4,8.5,8.5,15.4C40.8,80.5,43.3,77.1,41.1,71.9z"/>
	</g>
	<g>
		<path d="M80.6,92.4c6.2,3.7,13.5,0.4,13.5,0.4c-5.9-7.4-17.6-8.5-17.6-8.5c1.7,1.4,0.7,3.5-0.7,4.5c-0.9,0.6-2,1-3.5,0.2
			c1.1,9.8,8.2,17.6,8.2,17.6C83.2,102.5,80.6,92.4,80.6,92.4z"/>
	</g>
	<g>
		<path d="M57.6,61.6c-0.3,0-0.5-0.1-0.7-0.3c-2.3-2.9-4.4-5.5-6.4-8.1l0,0c-2.4-2.9-5-5.9-7.8-8.9l-0.1-0.2
			c-0.2-0.3-0.3-0.6-0.1-0.9c0.1-0.3,0.4-0.5,0.8-0.5c1.2-0.1,12.1-0.6,15.2,2.6c0.2,0.2,0.3,0.6,0.2,0.9c0,0.1-2.7,9-0.2,14.1
			c0.2,0.4,0.1,0.9-0.3,1.1C58,61.5,57.8,61.6,57.6,61.6z M45.2,44.4c2.4,2.5,4.6,5.1,6.7,7.7l0,0c1.2,1.5,2.5,3.1,3.7,4.7
			c-0.5-4.3,0.6-9,1.1-10.5C54.5,44.7,48.8,44.4,45.2,44.4z"/>
	</g>
	<g>
		<path d="M40.8,81.3c-0.2,0-0.4-0.1-0.6-0.2C31.1,74,31.3,65.4,31.4,65c0-0.3,0.2-0.6,0.5-0.8c0.3-0.1,0.7-0.1,0.9,0.1
			c2.7,2.2,5.9,4.7,8.7,6.7c0.1,0.1,0.2,0.2,0.3,0.4c2.4,5.7-0.2,9.3-0.3,9.5s-0.4,0.3-0.6,0.4C40.9,81.3,40.9,81.3,40.8,81.3z
			 M33.4,67.1c0.4,2.7,2,7.6,7.1,12c0.5-1.2,1-3.5-0.2-6.7C38.1,70.8,35.6,68.9,33.4,67.1z"/>
	</g>
	<g>
		<path d="M80.5,107.5c-0.3,0-0.5-0.1-0.7-0.3c-0.3-0.3-7.2-8.1-8.4-18.1c0-0.3,0.1-0.6,0.4-0.8c0.3-0.2,0.6-0.2,0.9-0.1
			c1.1,0.5,1.8,0.3,2.6-0.2c0.7-0.5,1.2-1.2,1.2-1.9c0-0.5-0.2-0.8-0.6-1.2c-0.3-0.2-0.4-0.7-0.3-1c0.1-0.4,0.5-0.6,0.9-0.5
			c0.5,0,12.1,1.2,18.2,8.8C95,92.5,95,92.7,95,93c-0.1,0.3-0.2,0.5-0.5,0.6s-6.5,3-12.6,0.5c0.6,3.2,1.6,9.7-0.6,13
			C81.1,107.3,80.9,107.5,80.5,107.5C80.6,107.5,80.5,107.5,80.5,107.5z M73.5,90.3c1.2,6.7,5.1,12.4,6.9,14.7
			c1.2-3.6,0-9.9-0.6-12.3c-0.1-0.3,0-0.7,0.3-0.9c0.3-0.2,0.7-0.2,1,0c4.3,2.6,9.4,1.5,11.5,0.7c-4.3-4.6-11.1-6.3-14.3-6.9
			c0.1,0.2,0.1,0.5,0.1,0.8c-0.1,1.2-0.8,2.5-2,3.3C75.7,90,74.7,90.5,73.5,90.3z"/>
	</g>
	<g>
		<g>
			<path d="M76.5,84.3c-1.7-1.4-11.8-14.9-25.3-31.7c-8.4-10.4-18.9-19.9-27.6-26.3c-0.5,2.2-1.4,4.4-3.1,6.3
				c2.4,2.7,5.1,5.9,8.2,9.7c18.4,22.8,35.6,41,47.1,46.4C77.2,87.9,78.3,85.7,76.5,84.3z"/>
		</g>
	</g>
	<g>
		<g>
			<path d="M75.8,89.7c-0.1,0-0.3,0-0.4-0.1C64.9,84.7,49,69,28,43c-2.9-3.6-5.6-6.9-8.1-9.7c-0.3-0.3-0.3-0.8,0-1.1
				c1.4-1.7,2.4-3.7,2.9-5.9c0.1-0.3,0.3-0.5,0.6-0.6c0.3-0.1,0.6-0.1,0.8,0.1C34,33,44.4,42.9,51.9,52.2c6,7.4,11.3,14.2,15.5,19.6
				c4.9,6.3,8.8,11.2,9.7,12c0.9,0.7,1.3,1.6,1.2,2.6c0,1.2-0.8,2.5-2,3.3C76.2,89.6,76,89.7,75.8,89.7z M21.7,32.7
				c2.4,2.7,5,5.8,7.7,9.2c20.4,25.4,36,40.8,46.3,45.9c0.5-0.5,0.8-1.1,0.8-1.6s-0.2-0.8-0.6-1.2l0,0c-1-0.8-3.9-4.5-10-12.2
				c-4.2-5.4-9.5-12.1-15.5-19.6c-7.2-8.9-17-18.3-26.3-25.3C23.6,29.6,22.8,31.3,21.7,32.7z"/>
		</g>
	</g>
	<g>
		<path d="M18.2,26.1c-1.2-1.2-3-1.2-4.2,0c-1.2,1.2-1.2,3,0,4.2c1.2,1.2,3,1.2,4.2,0C19.3,29.1,19.3,27.2,18.2,26.1z M16.7,28
			c-0.4,0.4-1.1,0.4-1.5,0s-0.4-1.1,0-1.5s1.1-0.4,1.5,0C17.2,26.9,17.2,27.6,16.7,28z"/>
	</g>
</g>
</svg>
