<?xml version="1.0" encoding="utf-8"?>
<!-- Generator: Adobe Illustrator 21.0.2, SVG Export Plug-In . SVG Version: 6.00 Build 0)  -->
<svg version="1.1" id="Calque_1" xmlns="http://www.w3.org/2000/svg" xmlns:xlink="http://www.w3.org/1999/xlink" x="0px" y="0px"
	 viewBox="0 0 100 125" style="enable-background:new 0 0 100 125;" xml:space="preserve">
<path d="M89.2,73.3c0,21.6-17.5,39.2-39.2,39.2S10.8,94.9,10.8,73.3c0-14.1,7.5-26.5,18.8-33.4l-1.5-2.6l-0.4,0.2
	c-0.5,0.3-1.1,0.1-1.3-0.4L23.5,32c-0.3-0.5-0.1-1.1,0.4-1.3l2.5-1.5c0.5-0.3,1.1-0.1,1.3,0.4l2.9,5.1c0.3,0.5,0.1,1.1-0.4,1.3
	l-0.4,0.2l1.5,2.6c4.9-2.7,10.4-4.3,16.3-4.7v-2.4c-4.2-1.1-7.3-4.9-7.3-9.5c0-5.4,4.4-9.8,9.8-9.8s9.8,4.4,9.8,9.8
	c0,4.6-3.1,8.4-7.3,9.5v2.4c5.9,0.4,11.4,2,16.3,4.7l1.5-2.6L70,36c-0.5-0.3-0.6-0.9-0.4-1.3l2.9-5.1c0.3-0.5,0.9-0.6,1.3-0.4
	l2.5,1.5c0.5,0.3,0.6,0.9,0.4,1.3l-2.9,5.1c-0.3,0.5-0.9,0.6-1.3,0.4l-0.4-0.2L70.6,40C81.7,46.8,89.2,59.1,89.2,73.3z M57.8,22.4
	c0-4.4-3.5-7.9-7.8-7.9s-7.8,3.5-7.8,7.8c0,3.5,2.3,6.4,5.4,7.4v-3h-1.5c-0.5,0-1-0.4-1-1v-2.9c0-0.5,0.4-1,1-1h7.8c0.5,0,1,0.4,1,1
	v2.9c0,0.5-0.4,1-1,1h-1.5v3C55.6,28.8,57.8,25.8,57.8,22.4z M50,39c-18.9,0-34.3,15.3-34.3,34.3s15.4,34.2,34.3,34.2
	s34.3-15.3,34.3-34.3S68.9,39,50,39z M81.3,74.2h-2c-0.5,0-1-0.4-1-1s0.4-1,1-1h2c0.5,0,1,0.4,1,1S81.9,74.2,81.3,74.2z M76.6,89.8
	l-1.7-1c-0.5-0.3-0.6-0.9-0.4-1.3c0.3-0.5,0.9-0.6,1.3-0.4l1.7,1c0.5,0.3,0.6,0.9,0.4,1.3C77.7,89.9,77.1,90.1,76.6,89.8z
	 M77.6,58.5l-1.7,1c-0.5,0.3-1.1,0.1-1.3-0.4c-0.3-0.5-0.1-1.1,0.4-1.3l1.7-1c0.5-0.3,1.1-0.1,1.3,0.4
	C78.3,57.6,78.1,58.2,77.6,58.5z M66.2,101.3c-0.5,0.3-1.1,0.1-1.3-0.4l-1-1.7c-0.3-0.5-0.1-1.1,0.4-1.3c0.5-0.3,1.1-0.1,1.3,0.4
	l1,1.7C66.8,100.4,66.6,101,66.2,101.3z M65.5,48.3c-0.3,0.5-0.9,0.6-1.3,0.4c-0.5-0.3-0.6-0.9-0.4-1.3l1-1.7
	c0.3-0.5,0.9-0.6,1.3-0.4c0.5,0.3,0.6,0.9,0.4,1.3L65.5,48.3z M51.6,71.4c0.5,0.4,0.8,1.1,0.8,1.8c0,1-0.6,1.9-1.5,2.2v1.2
	c0,0.5-0.4,1-1,1s-1-0.4-1-1v-1.1c-0.9-0.4-1.5-1.2-1.5-2.2s0.6-1.9,1.5-2.2V49.8c0-0.5,0.4-1,1-1s1,0.4,1,1v20.8L60,54.8
	c0.1-0.2,0.4-0.3,0.7-0.2c0.2,0.1,0.3,0.4,0.2,0.7L51.6,71.4z M49,73.3c0,0.5,0.4,1,1,1s1-0.4,1-1s-0.4-1-1-1S49,72.8,49,73.3z
	 M50,45c-0.5,0-1-0.4-1-1v-2c0-0.5,0.4-1,1-1s1,0.4,1,1v2C51,44.4,50.5,45,50,45z M35.2,100.9c-0.3,0.5-0.9,0.6-1.3,0.4
	c-0.5-0.3-0.6-0.9-0.4-1.3l1-1.7c0.3-0.5,0.9-0.6,1.3-0.4c0.5,0.3,0.6,0.9,0.4,1.3L35.2,100.9z M35.8,48.8c-0.5,0.3-1.1,0.1-1.3-0.4
	l-1-1.7c-0.3-0.5-0.1-1.1,0.4-1.3c0.5-0.3,1.1-0.1,1.3,0.4l1,1.7C36.4,47.8,36.3,48.5,35.8,48.8z M25.1,88.8l-1.7,1
	c-0.5,0.3-1.1,0.1-1.3-0.4c-0.3-0.5-0.1-1.1,0.4-1.3l1.7-1c0.5-0.3,1.1-0.1,1.3,0.4C25.7,87.9,25.5,88.5,25.1,88.8z M24.1,59.5
	l-1.7-1c-0.5-0.3-0.6-0.9-0.4-1.3c0.3-0.5,0.9-0.6,1.3-0.4l1.7,1c0.5,0.3,0.6,0.9,0.4,1.3C25.1,59.5,24.5,59.8,24.1,59.5z
	 M20.6,74.2h-2c-0.5,0-1-0.4-1-1s0.4-1,1-1h2c0.5,0,1,0.4,1,1S21.2,74.2,20.6,74.2z M50,101.7c0.5,0,1,0.4,1,1v2c0,0.5-0.4,1-1,1
	s-1-0.4-1-1v-2C49,102.1,49.5,101.7,50,101.7z"/>
</svg>
