<?xml version="1.0" encoding="utf-8"?>
<!-- Generator: Adobe Illustrator 21.0.2, SVG Export Plug-In . SVG Version: 6.00 Build 0)  -->
<svg version="1.1" id="Calque_1" xmlns="http://www.w3.org/2000/svg" xmlns:xlink="http://www.w3.org/1999/xlink" x="0px" y="0px"
	 viewBox="0 0 100 125" style="enable-background:new 0 0 100 125;" xml:space="preserve">
<style type="text/css">
	.st0{fill:none;}
</style>
<g>
	<path d="M75.3,103H30.3c-4.4,0-8-3.1-8-6.9v-4.4h61.2v4.4C83.4,99.9,79.8,103,75.3,103z M24.8,94.3v1.9c0,2.4,2.4,4.3,5.5,4.3h45.1
		c3,0,5.5-1.9,5.5-4.3v-1.9H24.8z"/>
</g>
<g>
	<path d="M82.9,90.8H22.7c-0.7,0-1.3-0.6-1.3-1.3c0-0.7,0.6-1.3,1.3-1.3h60.1c0.7,0,1.3,0.6,1.3,1.3C84.2,90.2,83.6,90.8,82.9,90.8z
		"/>
</g>
<g>
	<g>
		<path d="M38.6,106.4h-6.9c-0.7,0-1.3-0.6-1.3-1.3c0-0.7,0.6-1.3,1.3-1.3h6.9c0.7,0,1.3,0.6,1.3,1.3
			C39.9,105.8,39.4,106.4,38.6,106.4z"/>
	</g>
	<g>
		<path d="M73.9,106.4H67c-0.7,0-1.3-0.6-1.3-1.3c0-0.7,0.6-1.3,1.3-1.3h6.9c0.7,0,1.3,0.6,1.3,1.3
			C75.1,105.8,74.6,106.4,73.9,106.4z"/>
	</g>
</g>
<path class="st0" d="M55.1,45.8v-5.4c-1,0.3-2,0.4-3.1,0.4c-3.7,0-7-1.8-9.1-4.7c-0.4,0.1-0.7,0.1-1.1,0.1c-0.9,0-1.8-0.2-2.6-0.5
	c0.8,0.8,1.5,1.7,2,2.7c0.1,0,0.2,0,0.4,0c5.1,0,9.2,3.9,9.6,8.9h2.5C54.5,47.2,55.1,46.6,55.1,45.8z"/>
<path class="st0" d="M82.1,50.8c0.7,0,1.3-0.2,1.9-0.5c1.8-1.1,2.5-3.4,1.4-5.3c-0.7-1.2-2-1.9-3.3-1.9c-0.3,0-0.6,0-0.9,0.1
	c-0.1-0.3-0.3-0.7-0.5-1c-1.4-2.4-3.9-3.7-6.5-3.7c-1.3,0-2.6,0.3-3.8,1c-3.6,2.1-4.8,6.7-2.7,10.3c1.4,2.4,3.9,3.7,6.5,3.7
	c1.3,0,2.6-0.3,3.8-1c0.9-0.6,1.7-1.3,2.3-2.1C80.9,50.6,81.5,50.8,82.1,50.8z"/>
<path d="M81.2,53.3c0.3,0,0.6,0.1,0.9,0.1c1.1,0,2.3-0.3,3.2-0.9c3.1-1.8,4.1-5.7,2.3-8.8c-1-1.8-2.9-3-5-3.2
	c-1.8-2.9-5.1-4.6-8.5-4.6c-1.8,0-3.5,0.5-5.1,1.4c-4.8,2.8-6.4,9-3.6,13.8c1,1.8,2.6,3.1,4.4,4c-1.3,0.1-2.6,0.5-3.8,1.2
	C65.5,56.1,65,56,64.4,56c-3.3,0-6,2.7-6,6c0,0.7,0.1,1.5,0.4,2.1h-9.4c-3,0-5.5-2.5-5.5-5.5c0-0.5,0.1-0.9,0.2-1.4
	c2.4-0.6,4.4-2.1,5.7-4.1h4c4,0,7.3-3.3,7.3-7.3v-5c0,0,0,0,0,0c4.3,0,7.8-3.5,7.8-7.8c0-3.9-2.9-7.2-6.7-7.7
	c-1.7-4-5.7-6.6-10.1-6.6c-3.4,0-6.6,1.6-8.7,4.2c-0.5-0.1-1-0.2-1.5-0.2c-3.7,0-6.8,3-6.8,6.8c0,1.6,0.6,3.1,1.5,4.3
	c-1.7-1-3.7-1.5-5.8-1.5c-3,0-5.9,1.1-8.1,3.2c-1.3,1.2-2.4,2.7-3,4.4c-0.4-0.1-0.8-0.1-1.2-0.1c-3.9,0-7.1,3.2-7.1,7.1
	s3.2,7.1,7.1,7.1c1.4,0,2.7-0.4,3.9-1.2c2.2,2.2,5.2,3.4,8.4,3.4c1.5,0,3.1-0.3,4.5-0.9c0.8,0.7,1.8,1.3,2.8,1.7
	C38,57.4,38,58,38,58.6C38,64.9,43.1,70,49.4,70h11.2c0.5,0,0.8,0.4,0.8,0.8c0,0.2-0.1,0.4-0.2,0.5L48.7,84
	c-0.2,0.2-0.3,0.3-0.4,0.5c-0.3-0.1-0.7-0.1-1-0.1c-2.9,0-5.2,2.3-5.2,5.2h7h3.3h11.2c0-3.3-2.2-6.1-5.2-7l7-7l0.1-0.1
	c0.7-0.8,1.2-1.7,1.5-2.6c1.1,0.4,2.3,0.7,3.5,0.7c1.7,0,3.3-0.5,4.7-1.3c1.1,0.8,2.5,1.3,3.9,1.3c3.6,0,6.6-3,6.6-6.6
	c0-3.6-3-6.6-6.6-6.6c-0.1,0-0.2,0-0.3,0c-0.9-1.9-2.3-3.4-4.2-4.3c1.6-0.1,3.1-0.6,4.5-1.4C80,54.3,80.6,53.8,81.2,53.3z
	 M55.1,45.8c0,0.8-0.6,1.4-1.4,1.4h-2.5c-0.4-5-4.5-8.9-9.6-8.9c-0.1,0-0.2,0-0.4,0c-0.5-1-1.2-1.9-2-2.7c0.8,0.3,1.7,0.5,2.6,0.5
	c0.4,0,0.8,0,1.1-0.1c2,2.9,5.4,4.7,9.1,4.7c1,0,2.1-0.1,3.1-0.4V45.8z M41.9,25.3c0.9,0,1.8,0.3,2.5,0.8c1.4-2.9,4.3-4.9,7.7-4.9
	c4,0,7.4,2.8,8.3,6.6c0.2,0,0.5-0.1,0.7-0.1c2.9,0,5.2,2.3,5.2,5.2c0,2.9-2.3,5.2-5.2,5.2c0,0,0,0,0,0c-1.5,0-2.9-0.7-3.8-1.7
	c-0.6,0.5-1.3,0.9-2.1,1.1c-0.9,0.4-2,0.6-3.1,0.6c-3.6,0-6.6-2.2-7.9-5.3c-0.7,0.4-1.5,0.7-2.3,0.7c-2.3,0-4.2-1.9-4.2-4.2
	S39.6,25.3,41.9,25.3z M38.8,54.4c-1.2-0.5-2.2-1.3-2.9-2.4c-1.5,0.9-3.2,1.5-5,1.5c-3.5,0-6.6-1.9-8.2-4.8
	c-0.7,1.5-2.3,2.6-4.1,2.6c-2.5,0-4.5-2-4.5-4.5s2-4.5,4.5-4.5c1.1,0,2.1,0.4,2.9,1.1c0.4-4.8,4.4-8.5,9.3-8.5
	c4.1,0,7.6,2.7,8.9,6.4c0.6-0.2,1.3-0.3,1.9-0.3c3.7,0,6.7,2.8,7,6.3c0,0.2,0,0.5,0,0.7c0,3.9-3.2,7-7,7
	C40.6,55,39.7,54.7,38.8,54.4z M77.2,63.5c0.6-0.4,1.3-0.6,2.1-0.6c2.2,0,4,1.8,4,4c0,2.2-1.8,4-4,4c-1.6,0-3-1-3.6-2.3
	c-1.2,1.4-3,2.3-5.1,2.3c-1.2,0-2.3-0.3-3.3-0.9c-1.7-1-2.9-2.7-3.3-4.7c-0.9-0.1-1.7-0.5-2.2-1.1C61.3,63.6,61,62.8,61,62
	c0-1.9,1.5-3.4,3.4-3.4c0.7,0,1.4,0.2,1.9,0.6c1.2-1,2.7-1.6,4.3-1.6C74,57.6,76.9,60.2,77.2,63.5z M78,52.4c-1.2,0.7-2.5,1-3.8,1
	c-2.6,0-5.1-1.3-6.5-3.7c-2.1-3.6-0.9-8.2,2.7-10.3c1.2-0.7,2.5-1,3.8-1c2.6,0,5.1,1.3,6.5,3.7c0.2,0.3,0.3,0.6,0.5,1
	c0.3-0.1,0.6-0.1,0.9-0.1c1.3,0,2.6,0.7,3.3,1.9c1.1,1.8,0.5,4.2-1.4,5.3c-0.6,0.4-1.3,0.5-1.9,0.5c-0.6,0-1.2-0.1-1.8-0.4
	C79.7,51.2,78.9,51.9,78,52.4z"/>
</svg>
