<?xml version="1.0" encoding="utf-8"?>
<!-- Generator: Adobe Illustrator 21.0.2, SVG Export Plug-In . SVG Version: 6.00 Build 0)  -->
<svg version="1.1"
	 id="Calque_1" xmlns:cc="http://creativecommons.org/ns#" xmlns:dc="http://purl.org/dc/elements/1.1/" xmlns:inkscape="http://www.inkscape.org/namespaces/inkscape" xmlns:rdf="http://www.w3.org/1999/02/22-rdf-syntax-ns#" xmlns:sodipodi="http://sodipodi.sourceforge.net/DTD/sodipodi-0.dtd" xmlns:svg="http://www.w3.org/2000/svg"
	 xmlns="http://www.w3.org/2000/svg" xmlns:xlink="http://www.w3.org/1999/xlink" x="0px" y="0px" viewBox="0 0 128 160"
	 style="enable-background:new 0 0 128 160;" xml:space="preserve">
<path d="M79.9,18.9c-1.4-0.1-2.7,0.8-3.1,2.2l-3.4,12.6c-1.4,0.6-2.5,1.8-3,3.3l-1.6,5.8c-0.3,1.3-0.2,2.6,0.5,3.8
	c0.1,0.2,0.3,0.4,0.4,0.6L63,72.6c-8.4-0.6-16.3,4.9-18.6,13.3l-13,48.6c-1.9-0.5-3.6-1.6-4.8-3c-0.6-0.7-1.4-1.1-2.3-1.1
	s-1.7,0.4-2.3,1.1c-1.8,2.2-4.6,3.4-7.6,3.4s-5.8-1.2-7.6-3.4c-1.1-1.3-3-1.4-4.2-0.3c-1.3,1.1-1.4,3-0.3,4.2
	c3,3.5,7.4,5.5,12.2,5.5c3.7,0,7.1-1.2,9.9-3.3c2.8,2.2,6.2,3.3,9.9,3.3s7.1-1.2,9.9-3.3c2.8,2.2,6.2,3.3,9.9,3.3
	c3.6,0,7.1-1.2,9.8-3.3c2.8,2.2,6.3,3.5,10,3.5h0.2c3.7,0,7.3-1.3,10.1-3.5c0,0,0.1,0,0.1,0.1c0.1,0.1,0.2,0.1,0.3,0.2
	c0.3,0.2,0.7,0.5,1,0.7c0.1,0.1,0.3,0.2,0.4,0.3c0.3,0.2,0.7,0.4,1,0.5c0.1,0.1,0.3,0.1,0.4,0.2c0.5,0.2,0.9,0.4,1.4,0.6
	c0.1,0,0.2,0,0.2,0.1c0.4,0.1,0.8,0.2,1.3,0.3c0.2,0,0.3,0.1,0.5,0.1c0.4,0.1,0.7,0.1,1.1,0.2c0.2,0,0.3,0,0.5,0.1
	c0.5,0.1,1.1,0.1,1.6,0.1c3.7,0,7.1-1.2,9.9-3.3c2.7,2.1,6,3.3,9.5,3.3h0.1c1.6,0,3-1.3,3-2.9c-0.2-1.9-1.5-3.3-3.2-3.3
	c-2.9-0.1-5.5-1.3-7.3-3.4c-0.6-0.7-1.4-1.1-2.3-1.1s-1.7,0.4-2.3,1.1c-1.8,2.2-4.6,3.4-7.6,3.4s-5.8-1.2-7.6-3.4
	c-0.1-0.2-0.3-0.3-0.5-0.4l-0.1-0.1c-0.1-0.1-0.3-0.2-0.4-0.2l8.5-31.7c1.2-4.6,0.6-9.5-1.8-13.7c-1.8-3.1-4.5-5.6-7.6-7.2l6.8-25.5
	c1.4-0.6,2.5-1.8,3-3.3l1.6-5.8c0.3-1.3,0.2-2.6-0.5-3.8c-0.1-0.2-0.3-0.4-0.4-0.6L98,26.8c0.4-1.6-0.5-3.2-2.1-3.7L80.5,19
	C80.3,18.9,80.1,18.9,79.9,18.9z M81.8,25.5l6.8,1.8L86.3,36l-6.8-1.8L81.8,25.5z M76,39.5l13.5,3.6l-1,3.9l-6.8-1.8L75,43.4
	L76,39.5z M75.3,49.7l1.3,0.4l5.4,1.5l-6.5,24.1l-6.8-1.8L75.3,49.7z M61.2,78.6c1.2,0,2.4,0.1,3.6,0.4l13.5,3.6
	c2.8,3.6,4,8.4,2.7,13.2l-10.3,38.9c-1.6-0.6-3.2-1.6-4.4-3l-0.2-0.2c-0.6-0.7-1.4-1.1-2.3-1.1s-1.7,0.4-2.3,1.1
	c-1.8,2.2-4.6,3.4-7.6,3.4s-5.8-1.2-7.6-3.4c-0.6-0.7-1.4-1.1-2.3-1.1s-1.7,0.4-2.3,1.1c-1.1,1.3-2.5,2.2-4.1,2.8l12.5-46.8
	C51.5,82.3,56.1,78.8,61.2,78.6z M58.2,87.3c-1.4-0.1-2.7,0.8-3.1,2.2L51,104.8c-0.4,1.6,0.5,3.2,2.1,3.7c0.3,0.1,0.5,0.1,0.8,0.1
	c1.3,0,2.5-0.9,2.9-2.2l4.1-15.3c0.4-1.6-0.5-3.3-2.1-3.7C58.6,87.3,58.4,87.3,58.2,87.3z M123.5,130.4c-1.7,0-3,1.3-3,3
	c0,1.7,1.3,3,3,3s3-1.3,3-3C126.5,131.7,125.2,130.4,123.5,130.4z"/>
</svg>
