<?xml version="1.0" encoding="utf-8"?>
<!-- Generator: Adobe Illustrator 21.0.2, SVG Export Plug-In . SVG Version: 6.00 Build 0)  -->
<svg version="1.1" id="Calque_1" xmlns="http://www.w3.org/2000/svg" xmlns:xlink="http://www.w3.org/1999/xlink" x="0px" y="0px"
	 viewBox="0 0 100 125" style="enable-background:new 0 0 100 125;" xml:space="preserve">
<path d="M50,42.8c-10.3,0-18.7,8.4-18.7,18.7c0,4.9,2.4,9.5,4.6,13.9c2.2,4.3,4.3,8.4,4.3,12.7c0,1.5,0.5,2.9,1.4,4
	c0.4-0.3,0.8-0.5,1.3-0.7c-0.7-0.8-1.2-1.9-1.2-3.3c0-4.6-2.3-9.1-4.5-13.4c-2.2-4.3-4.5-8.7-4.5-13.2c0-9.5,7.7-17.2,17.2-17.2
	S67.1,52,67.1,61.5c0,4.5-2.3,9-4.5,13.2c-2.2,4.3-4.5,8.7-4.5,13.4l0,0c0,1.1-0.8,2.1-1.9,2.3c-1.6,0.3-3.8,0.6-5.5,0.9l0,0h-0.1
	c-5.9,0.8-8.7,1.4-8.7,3.1c0,0.5,0.7,1,0.7,1c-0.2-0.2,0.4-0.7,0.8-0.9c0.9-0.6,4.7-1.3,7.3-1.7l0,0c2.5-0.3,4.5-0.6,6-0.9
	c2-0.5,3-2.2,3-3.8c0-4.3,2.1-8.3,4.3-12.7c2.3-4.4,4.6-9,4.6-13.9C68.7,51.2,60.3,42.8,50,42.8z"/>
<path d="M50.8,96.4c-2.6,0.4-6.4,0.9-7.3,1.5c-0.3,0.2-1,0.8-0.8,0.9c0,0-0.7-0.5-0.7-1c0-1.7,2.8-2.2,8.7-3h0.1l0,0
	c2.6-0.4,6.4-0.9,7.3-1.5c0.3-0.2,1-0.8,0.8-0.9c0,0,0.7,0.5,0.7,1C59.6,95.1,56.8,95.6,50.8,96.4C50.9,96.4,50.8,96.4,50.8,96.4z"
	/>
<path d="M50.8,99.8c-2.6,0.4-6.4,0.9-7.3,1.5c-0.3,0.2-1,0.8-0.8,0.9c0,0-0.7-0.5-0.7-1c0-1.7,2.8-2.2,8.7-3h0.1l0,0
	c2.6-0.4,6.4-0.9,7.3-1.5c0.3-0.2,1-0.8,0.8-0.9c0,0,0.7,0.5,0.7,1C59.6,98.5,56.8,99,50.8,99.8C50.9,99.8,50.8,99.8,50.8,99.8z"/>
<path d="M90.9,65.6c-1.9,0-10-3-11-3.4c-0.3-0.1-0.5-0.4-0.5-0.7s0.2-0.6,0.5-0.7c0.9-0.3,9.1-3.4,11-3.4c2.2,0,4.1,1.8,4.1,4.1
	C94.9,63.7,93.1,65.6,90.9,65.6z M82.3,61.5c3.3,1.2,7.5,2.6,8.5,2.6c1.4,0,2.6-1.2,2.6-2.6s-1.2-2.6-2.6-2.6
	C89.8,58.9,85.7,60.3,82.3,61.5z"/>
<path d="M71.3,40.9c-0.2,0-0.4-0.1-0.5-0.2c-0.2-0.2-0.3-0.6-0.2-0.8c0.4-0.9,4-8.8,5.4-10.1c0.8-0.8,1.8-1.2,2.9-1.2
	s2.1,0.4,2.9,1.2c1.6,1.6,1.6,4.2,0,5.7c-1.3,1.4-9.2,5-10.1,5.4C71.5,40.9,71.4,40.9,71.3,40.9z M78.9,30c-0.7,0-1.3,0.3-1.8,0.8
	c-0.7,0.7-2.7,4.7-4.2,7.9c3.2-1.5,7.1-3.5,7.9-4.2c1-1,1-2.6,0-3.6C80.2,30.3,79.6,30,78.9,30z"/>
<path d="M50,32.1c-0.3,0-0.6-0.2-0.7-0.5c-0.3-0.9-3.4-9.1-3.4-11c0-2.2,1.9-4,4.1-4s4,1.8,4,4.1c0,1.9-3,10-3.4,11
	C50.6,31.9,50.3,32.1,50,32.1z M50,18.1c-1.4,0-2.6,1.2-2.6,2.6c0,1,1.4,5.2,2.6,8.5c1.2-3.3,2.6-7.5,2.6-8.5
	C52.6,19.2,51.4,18.1,50,18.1z"/>
<path d="M28.7,41c-0.1,0-0.2,0-0.3-0.1c-0.9-0.4-8.8-4-10.1-5.4c-0.8-0.8-1.3-1.8-1.3-2.9c0-1.1,0.4-2.1,1.2-2.9
	c1.6-1.6,4.2-1.6,5.7,0c1.4,1.4,5,9.2,5.4,10.1c0.1,0.3,0.1,0.6-0.2,0.8C29.1,40.9,28.9,41,28.7,41z M21.1,30.1
	c-0.7,0-1.3,0.2-1.8,0.8c-0.5,0.5-0.8,1.1-0.8,1.8c0,0.7,0.3,1.3,0.8,1.8c0.7,0.7,4.7,2.7,7.9,4.2c-1.5-3.2-3.5-7.1-4.2-7.9
	C22.4,30.3,21.8,30.1,21.1,30.1z"/>
<path d="M9.1,65.6c-2.2,0-4.1-1.8-4.1-4.1s1.8-4.1,4.1-4.1c1.9,0,10,3,11,3.4c0.3,0.1,0.5,0.4,0.5,0.7s-0.2,0.6-0.5,0.7
	C19.2,62.6,11.1,65.6,9.1,65.6z M9.1,59c-1.4,0-2.6,1.2-2.6,2.6s1.2,2.6,2.6,2.6c1,0,5.2-1.4,8.5-2.6C14.4,60.3,10.2,59,9.1,59z"/>
<path d="M52.3,103.7c-0.4,0.8-1.3,1.3-2.2,1.3s-1.8-0.5-2.2-1.3h-1.6c0.5,1.6,2,2.8,3.8,2.8s3.3-1.2,3.8-2.8H52.3z"/>
</svg>
