<?xml version="1.0" encoding="utf-8"?>
<!-- Generator: Adobe Illustrator 21.0.2, SVG Export Plug-In . SVG Version: 6.00 Build 0)  -->
<svg version="1.1" id="Calque_1" xmlns="http://www.w3.org/2000/svg" xmlns:xlink="http://www.w3.org/1999/xlink" x="0px" y="0px"
	 viewBox="0 0 100 125" style="enable-background:new 0 0 100 125;" xml:space="preserve">
<g>
	<path d="M65.2,75.6l-9.2-9.2c-0.6-0.6-1.5-0.6-2.1,0s-0.6,1.5,0,2.1l9.2,9.2c3.5,3.5,5.4,8.2,5.4,13.1l0,11.7c0,2,3,2,3,0l0-11.7
		C71.5,85.1,69.3,79.7,65.2,75.6z"/>
	<path d="M34.8,49.4l9.2,9.2c0.5,0.5,1.5,0.6,2.1,0c0.6-0.6,0.6-1.5,0-2.1l-9.2-9.2c-3.5-3.5-5.4-8.2-5.4-13.1l0-11.7c0-2-3-2-3,0
		l0,11.7C28.5,39.9,30.7,45.4,34.8,49.4z"/>
	<path d="M70,21c-0.8,0-1.5,0.7-1.5,1.5V31H35c-0.8,0-1.5,0.7-1.5,1.5c0,0.8,0.7,1.5,1.5,1.5h33.5v0.1c0,2.4-0.5,4.7-1.3,6.8H40
		c-0.8,0-1.5,0.7-1.5,1.5c0,0.8,0.7,1.5,1.5,1.5h25.7c-0.7,1.2-1.6,2.3-2.6,3.3L59.4,51H50c-0.8,0-1.5,0.7-1.5,1.5S49.2,54,50,54
		h6.4l-7.4,7.4c0,0,0,0,0,0L34.8,75.6c-4.1,4-6.3,9.5-6.3,15.3v11.6c0,0.8,0.7,1.5,1.5,1.5c0.8,0,1.5-0.7,1.5-1.5V94H65
		c0.8,0,1.5-0.7,1.5-1.5S65.8,91,65,91H31.5v-0.1c0-2.4,0.5-4.7,1.3-6.8H60c0.8,0,1.5-0.7,1.5-1.5S60.8,81,60,81H34.3
		c0.7-1.2,1.6-2.3,2.6-3.3l3.7-3.7H50c0.8,0,1.5-0.7,1.5-1.5c0-0.8-0.7-1.5-1.5-1.5h-6.4l7.4-7.4c0,0,0,0,0,0l14.1-14.1
		c4.1-4,6.3-9.5,6.3-15.3V22.5C71.5,21.7,70.8,21,70,21z"/>
</g>
</svg>
