<?xml version="1.0" encoding="utf-8"?>
<!-- Generator: Adobe Illustrator 21.0.2, SVG Export Plug-In . SVG Version: 6.00 Build 0)  -->
<svg version="1.1" id="Calque_1" xmlns="http://www.w3.org/2000/svg" xmlns:xlink="http://www.w3.org/1999/xlink" x="0px" y="0px"
	 viewBox="0 0 100 125" style="enable-background:new 0 0 100 125;" xml:space="preserve">
<g>
	<path d="M47.6,90.8V29.1h0c-0.8-4.2-4.6-7.3-8.9-7.3c-3.9,0-7.1,2.4-8.5,5.8c-1-0.3-2.1-0.5-3.2-0.5c-5.6,0-10.2,4.6-10.2,10.2
		c0,1.4,0.3,2.8,0.9,4.1c-4.7,1.6-8.1,6-8.1,11.3c0,2.6,0.8,5,2.3,7c-1.3,1.9-2,4.2-2,6.5c0,4.8,2.9,9,7,10.8
		c-0.9,1.4-1.4,3-1.4,4.7c0,4.5,3.4,8.3,7.8,8.9c0,0.1,0,0.2,0,0.3c0,6.7,5.5,12.2,12.2,12.2S47.6,97.7,47.6,91
		C47.6,90.9,47.6,90.9,47.6,90.8L47.6,90.8L47.6,90.8z M35.4,99.2c-4.5,0-8.2-3.7-8.2-8.2c0-0.2,0-0.4,0.1-0.6
		c2.2-0.7,4-2.2,5.1-4.2l-3.5-1.9c-0.9,1.6-2.6,2.6-4.4,2.6c-2.8,0-5-2.2-5-5c0-1.4,0.6-2.8,1.7-3.7c0.2,0,0.4,0,0.5,0
		c3.2,0,6.3-1.3,8.5-3.6c0.7,0.2,1.4,0.3,2.1,0.3c0.7,0,1.5-0.1,2.2-0.3l-1-3.9c-0.4,0.1-0.8,0.2-1.2,0.2c-2.7,0-4.9-2.2-4.9-4.9
		l0-0.2l-4-0.2c0,0.1,0,0.3,0,0.4c0,2.7,1.2,5.1,3,6.7c-1.3,1-3,1.6-4.7,1.6c-4.3,0-7.9-3.5-7.9-7.9c0-1.3,0.3-2.5,0.9-3.7
		c1.5,1,3.3,1.8,5.2,2l0.5-4c-3.9-0.5-6.9-3.9-6.9-7.9c0-4.4,3.6-7.9,7.9-7.9c2.1,0,4,0.8,5.5,2.2c-1.8,1.7-3,4.1-3,6.8
		c0,0.3,0,0.5,0,0.8l4-0.4c0-0.2,0-0.3,0-0.5c0-2.9,2.3-5.2,5.2-5.2c0.6,0,1.2,0.1,1.8,0.3l1.4-3.8c-1-0.4-2.1-0.6-3.2-0.6
		c-0.9,0-1.8,0.1-2.7,0.4c-2.1-2.5-5.2-4-8.6-4.1c-0.7-1-1.1-2.3-1.1-3.5c0-3.4,2.8-6.2,6.2-6.2c0.9,0,1.8,0.2,2.6,0.6c0,0,0,0,0,0
		l0.1,0c1.4,0.7,2.6,1.9,3.1,3.5l3.8-1.3c-0.6-1.7-1.6-3.1-2.9-4.2c0.5-2.2,2.5-3.9,4.9-3.9c2.4,0,4.4,1.7,4.9,4v60.3l0,0
		c0,0.3,0,0.6,0,0.8C43.6,95.5,39.9,99.2,35.4,99.2z"/>
	<path d="M90.4,52.7c0-5.3-3.3-9.7-8.1-11.3c0.6-1.3,0.9-2.7,0.9-4.1c0-5.6-4.6-10.2-10.2-10.2c-1.1,0-2.2,0.2-3.2,0.5
		c-1.3-3.4-4.6-5.8-8.4-5.8c-4.3,0-8,3.1-8.9,7.3h-0.1v61.7h0c0,0.1,0,0.1,0,0.2c0,6.7,5.5,12.2,12.2,12.2S76.7,97.7,76.7,91
		c0-0.1,0-0.2,0-0.3c4.4-0.6,7.8-4.4,7.8-8.9c0-1.7-0.5-3.3-1.4-4.8c4.1-1.9,7-6,7-10.8c0-2.4-0.7-4.7-2-6.5
		C89.6,57.7,90.4,55.3,90.4,52.7z M78.3,74.1c-1,0-1.9-0.2-2.8-0.5c1.2-2.8,0.6-6.3-1.7-8.5L71,68c1.4,1.3,1.5,3.5,0.3,5
		c-1.3,1.5-3.5,1.7-5,0.5l-2.5,3.2c1.4,1.1,3.1,1.6,4.7,1.6c1.6,0,3.1-0.5,4.4-1.4c1.7,0.8,3.5,1.3,5.4,1.3c0.2,0,0.4,0,0.5,0
		c1.1,1,1.7,2.3,1.7,3.7c0,2.8-2.2,5-5,5c-0.4,0-0.7-0.1-1.1-0.1c0.6-1,0.9-2.2,1-3.4l-4-0.1c-0.1,1.7-1.5,3.1-3.2,3.1
		c-1.1,0-2-0.5-2.6-1.4l-3.3,2.3c1.3,1.9,3.6,3.1,5.9,3.1c1.1,0,2-0.2,2.9-0.6c0.5,0.3,1.1,0.5,1.6,0.7c0,0.2,0.1,0.4,0.1,0.6
		c0,4.5-3.7,8.2-8.2,8.2s-8.2-3.7-8.2-8.2c0-0.3,0-0.6,0.1-1l-0.1,0V29.8c0.5-2.3,2.5-4,4.9-4c2.4,0,4.3,1.6,4.9,3.8
		c-0.5,0.4-0.9,0.9-1.4,1.5c-0.1,0-0.1,0-0.2,0c-3,0-5.6,2.2-6.2,5.2l3.9,0.7c0.2-1.1,1.1-1.9,2.2-1.9c1.2,0,2.3,1,2.3,2.3
		c0,0.1,0,0.2,0,0.4l3.9,0.7c0.1-0.3,0.1-0.7,0.1-1c0-1.8-0.8-3.5-2.1-4.7c0.4-0.4,0.9-0.7,1.4-1l0.1,0c0,0,0,0,0-0.1
		c0.8-0.4,1.7-0.6,2.6-0.6c3.4,0,6.2,2.8,6.2,6.2c0,2.8-1.8,5.1-4.4,5.9l1.1,3.8c1.5-0.4,2.8-1.2,3.9-2.1c3.8,0.6,6.7,3.9,6.7,7.8
		c0,1.4-0.4,2.8-1.1,4c-2-1.5-4.4-2.4-7.1-2.4c-1.4,0-2.7,0.2-4,0.7c-1.7-2.9-4.9-4.9-8.5-4.9c-2.4,0-4.8,0.9-6.6,2.5l2.7,3
		c1.1-1,2.5-1.5,3.9-1.5c3.2,0,5.9,2.6,5.9,5.9l0,0.1l4,0.1l0-0.2c0-0.4,0-0.8-0.1-1.1c0.9-0.3,1.8-0.5,2.7-0.5
		c4.3,0,7.9,3.5,7.9,7.9C86.1,70.6,82.6,74.1,78.3,74.1z"/>
</g>
</svg>
