<?xml version="1.0" encoding="utf-8"?>
<!-- Generator: Adobe Illustrator 21.0.2, SVG Export Plug-In . SVG Version: 6.00 Build 0)  -->
<svg version="1.1"
	 id="Calque_1" xmlns:cc="http://creativecommons.org/ns#" xmlns:dc="http://purl.org/dc/elements/1.1/" xmlns:inkscape="http://www.inkscape.org/namespaces/inkscape" xmlns:rdf="http://www.w3.org/1999/02/22-rdf-syntax-ns#" xmlns:sodipodi="http://sodipodi.sourceforge.net/DTD/sodipodi-0.dtd" xmlns:svg="http://www.w3.org/2000/svg"
	 xmlns="http://www.w3.org/2000/svg" xmlns:xlink="http://www.w3.org/1999/xlink" x="0px" y="0px" viewBox="0 0 100 125"
	 style="enable-background:new 0 0 100 125;" xml:space="preserve">
<path d="M46,17.5c-0.1,0-0.2,0-0.3,0c-1.5,0.2-2.7,1.5-2.7,3v3c0,1.7,1.3,3,3,3c1.7,0,3-1.3,3-3c0,0,0-0.1,0-0.1v-3
	C49,18.9,47.7,17.5,46,17.5C46,17.5,46,17.5,46,17.5z M33.8,20.5c-1.7,0.1-2.9,1.6-2.8,3.2c0,0.4,0.1,0.8,0.3,1.2l1,2
	c0.7,1.5,2.5,2.1,4,1.3s2.1-2.5,1.3-4l-1-2C36.1,21.1,35,20.4,33.8,20.5z M57.9,20.5c-1.1,0.1-2.1,0.7-2.6,1.7l-1,2
	c-0.7,1.5-0.1,3.3,1.3,4s3.3,0.1,4-1.3l1-2c0.8-1.5,0.2-3.3-1.3-4C58.9,20.6,58.4,20.5,57.9,20.5z M25.9,28.5c-1.7,0-3,1.4-3,3
	c0,1.2,0.7,2.2,1.7,2.7l2,1c1.5,0.7,3.3,0.1,4-1.3s0.1-3.3-1.3-4l-2-1C26.9,28.6,26.4,28.5,25.9,28.5z M66,28.5
	c-0.5,0-0.9,0.1-1.3,0.3l-2,1c-1.5,0.7-2.1,2.5-1.3,4s2.5,2.1,4,1.3l2-1c1.5-0.7,2.2-2.5,1.5-4C68.3,29.1,67.2,28.5,66,28.5z
	 M46,29.5c-7.7,0-14,6.3-14,14c0,3,1,5.7,2.6,8H21c-0.1,0-0.2,0-0.3,0c-1.5,0.2-2.7,1.5-2.7,3v14.6c0,5.5,1.5,10.6,4.1,15
	c0,0,0,0.1,0.1,0.1c2.9,5.4,5.8,9.4,5.8,12.3v8c0,1.7,1.3,3,3,3h27c1.7,0,3-1.3,3-3v-6h3c2.3,0,4.1-1.1,5.5-2.5s2.5-3.2,2.5-5.5v-7
	h4c3.2,0,6-2.7,6-6c0-1.1-0.3-2.2-0.9-3.2c-0.1-0.1-0.1-0.2-0.2-0.3L72,63.4v-8.9c0-1.7-1.3-3-3-3H57.4c1.6-2.3,2.6-5,2.6-8
	C60,35.8,53.7,29.5,46,29.5z M46,35.5c4.5,0,8,3.5,8,8c0,2.5-1.1,4.7-2.9,6.2c-0.5,0.5-0.9,1.1-1,1.8H49v-5.3c0.6-0.7,1-1.6,1-2.7
	c0-2.2-1.8-4-4-4s-4,1.8-4,4c0,1,0.4,2,1,2.7v5.3h-1c-0.1-0.7-0.5-1.4-1.1-1.8C39.1,48.3,38,46,38,43.5C38,39.1,41.5,35.5,46,35.5z
	 M22.7,40.5c-1.7,0.1-2.9,1.5-2.8,3.2c0.1,1.7,1.5,2.9,3.2,2.8h3c1.7,0,3-1.3,3-3c0-1.7-1.3-3-3-3c0,0-0.1,0-0.1,0h-3
	C22.9,40.5,22.8,40.5,22.7,40.5z M65.7,40.5c-1.7,0.1-2.9,1.5-2.8,3.2c0.1,1.7,1.5,2.9,3.2,2.8h3c1.7,0,3-1.3,3-3c0-1.7-1.3-3-3-3
	c0,0-0.1,0-0.1,0h-3C65.9,40.5,65.8,40.5,65.7,40.5z M24,57.5h42v7c0,0.7,0.2,1.4,0.7,1.9l9.2,11.1H69c-1.7,0-3,1.3-3,3v10
	c0,0.1-0.2,0.8-0.7,1.3s-1.2,0.7-1.3,0.7h-6c-1.7,0-3,1.3-3,3v6H34v-5c0-6.1-4-10.4-6.6-15.3c0,0,0-0.1-0.1-0.1
	c-2.1-3.5-3.3-7.6-3.3-12V57.5z"/>
</svg>
