<?xml version="1.0" encoding="utf-8"?>
<!-- Generator: Adobe Illustrator 21.0.2, SVG Export Plug-In . SVG Version: 6.00 Build 0)  -->
<svg version="1.1" id="Calque_1" xmlns="http://www.w3.org/2000/svg" xmlns:xlink="http://www.w3.org/1999/xlink" x="0px" y="0px"
	 viewBox="0 0 100 125" style="enable-background:new 0 0 100 125;" xml:space="preserve">
<g>
	<path d="M86.6,83.8c-0.2-0.7-0.5-1.6-0.5-1.9c0-0.9-0.2-3-0.6-6.8c-0.5-4.8-1.2-10.8-1.2-13.7c0-2.4-1-4.9-1.9-7.3
		c-0.6-1.5-1.1-3-1.5-4.3c0,0,0,0,0-0.1c-0.3-1.3-0.4-2.6,0.1-3.7c4.7-12.1-1.1-19.9-3.6-23.2c-0.1-0.1-0.1-0.1-0.1-0.2
		c-0.3-0.7-0.8-1.3-1.3-1.9c-2-2.1-5.8-3.1-8.8-3.1c-1.7,0-3.3,0.3-4.7,0.8c-3.4,1.3-3.3,7.4-3.1,12.8c0,0.9,0,1.8,0,2.5
		c0,0.7-0.1,1.2-0.2,1.6c-1.7,0.1-5.7,0.4-9.5-0.1c-3-0.4-5.4-0.3-7.3-0.2c-1.8,0.1-3.2,0.1-4.1-0.2c-1.4-0.5-3.1-3.8-4.5-6.4
		c-2.2-4.2-4.5-8.4-8-9c-1.7-1-4.1-1-6.5-1c-1.6,0-3.1,0.7-4.2,2.1c-2.5,3-3,9.2-1.5,16.2c0.7,3.4,0.2,7.5-0.3,12.3
		c-0.8,6.7-1.8,14.9,0.3,24.4c2.3,10.4,1.5,13.9,0.7,17.3c-0.4,1.7-0.8,3.4-0.8,5.7c0,0.1,0,0.2,0,0.3c0.1,0.4,1.8,10.5,9.3,10.5
		c2.2,0,4.2-0.3,6.2-0.5c2.2-0.3,4.5-0.6,7.2-0.6c2.3,0,4.7,0.2,7.2,0.7c1.8,0.3,3.7,0.5,5.8,0.5c6.6,0,14-1.5,21.3-2.9
		c3.3-0.7,6.5-1.3,9.5-1.7c3-0.5,5.2-1.8,6.6-3.9C89.5,94.3,87.6,87.6,86.6,83.8z M77.4,32.9c0.2-0.9,0.4-1.8,0.5-2.8
		c1.5,3.3,2.3,7.8,0.3,13.6c-0.9-2.1-1.5-4-1.5-6.4C76.8,36,77.1,34.5,77.4,32.9z M30.7,30.2c1.9,3.6,3.7,6.9,6.3,7.9
		c1.6,0.6,3.4,0.5,5.5,0.4c1.9-0.1,4.1-0.2,6.8,0.1c1.9,0.2,3.7,0.3,5.4,0.3c0.1,0,0.3,0,0.5,0c-0.3,0.3-0.7,0.6-1,1
		c-1.9,1.9-5.4,2.2-8.2,2.2c-1.1,0-2.1,0-3.2-0.1c-0.9,0-1.8-0.1-2.6-0.1c-3.7,0-4.5-0.6-8.3-4.4c-3.2-3.2-3.9-9.1-4-12.4
		C28.8,26.6,29.8,28.5,30.7,30.2z M83.7,96.9c-0.8,1.3-2.2,2.1-4.3,2.4c-3.1,0.5-6.2,1.1-9.6,1.8c-7,1.4-14.3,2.8-20.6,2.8
		c-1.9,0-3.7-0.1-5.2-0.4c-2.7-0.5-5.3-0.7-7.8-0.7c-3,0-5.4,0.3-7.7,0.6c-2,0.3-3.8,0.5-5.8,0.5c-4.3,0-5.7-6.5-5.9-7.5
		c0-1.9,0.3-3.3,0.7-4.8c0.8-3.6,1.8-7.6-0.7-18.8c-2-8.8-1.1-16.5-0.3-23.2c0.6-5.1,1.1-9.5,0.3-13.4c-1.5-6.6-0.6-11.5,0.9-13.3
		c0.6-0.7,1.1-0.8,1.5-0.8c5.1,0,5.1,0.3,5.1,1.9c0,3.3,0.5,11.6,5.1,16.1c4,4,5.7,5.4,10.8,5.4c0.7,0,1.6,0,2.4,0.1
		c1.1,0,2.2,0.1,3.3,0.1c3.5,0,7.8-0.4,10.6-3.2c1.1-1.1,2-1.8,2.9-2.3c0.8-0.6,1.6-1.2,2.3-2c0.7-0.9,1.2-2.2,1.2-4.3
		c0-0.8,0-1.7-0.1-2.6c-0.1-2.1-0.1-4.6,0.1-6.6c0.3-2.6,0.9-3,0.9-3c1-0.4,2.2-0.6,3.5-0.6c3,0,5.7,1.1,6.3,2.2
		c0.2,0.3,0.5,0.7,0.8,1.1c0.9,2.1,0.3,5-0.2,7.8c-0.3,1.8-0.7,3.5-0.7,5.1c0,4.1,1.4,7,3.1,10.8c0.4,0.8,0.8,1.7,1.2,2.6
		c0.4,1.6,1,3.1,1.6,4.7c0.8,2.2,1.7,4.3,1.7,6.1c0,3.1,0.7,9.2,1.2,14.1c0.3,2.9,0.6,5.6,0.6,6.4c0,0.6,0.2,1.3,0.6,2.8
		C84.2,87.9,85.8,93.8,83.7,96.9z"/>
	<path d="M34.2,73.4c0.3,0.2,0.6,0.2,0.9,0.2c0.3,0,0.6-0.1,0.9-0.2l10.1-5.8c0.5-0.3,0.9-0.9,0.9-1.5c0-0.6-0.3-1.2-0.9-1.5l-2-1.2
		l1.7-3c0.6-1,1.6-1.1,2-1.1s1.4,0.1,2,1.1l3.3,5.7c0.9,1.6,3,2.2,4.7,1.2c1.6-0.9,2.2-3,1.3-4.6L55.8,57c-1.6-2.8-4.6-4.5-7.9-4.5
		c-3.3,0-6.2,1.7-7.9,4.5l-1.7,3l-2.2-1.3c-0.5-0.3-1.2-0.3-1.7,0s-0.9,0.9-0.9,1.5v11.6C33.4,72.6,33.7,73.1,34.2,73.4z"/>
	<path d="M49.4,90.8l-10.1-5.8c-0.5-0.3-1.2-0.3-1.7,0s-0.9,0.9-0.9,1.5v2.3h-3.4c-1.2,0-1.8-0.8-2-1.1s-0.6-1.2,0-2.3l3.3-5.7
		c0.9-1.6,0.4-3.7-1.3-4.6c-1.6-0.9-3.7-0.4-4.7,1.2l-3.3,5.7c-1.6,2.8-1.6,6.2,0,9.1c1.6,2.8,4.6,4.5,7.9,4.5h3.4v2.5
		c0,0.6,0.3,1.2,0.9,1.5c0.3,0.2,0.6,0.2,0.9,0.2c0.3,0,0.6-0.1,0.9-0.2l10.1-5.8c0.5-0.3,0.9-0.9,0.9-1.5
		C50.2,91.6,49.9,91.1,49.4,90.8z"/>
	<path d="M71.4,76.3c0-0.6-0.3-1.2-0.9-1.5l-10.1-5.8c-0.5-0.3-1.2-0.3-1.7,0c-0.5,0.3-0.9,0.9-0.9,1.5v11.6c0,0.6,0.3,1.2,0.9,1.5
		c0.3,0.2,0.6,0.2,0.9,0.2c0.3,0,0.6-0.1,0.9-0.2l2-1.2l1.7,3c0.6,1,0.2,1.9,0,2.3c-0.2,0.3-0.8,1.1-2,1.1h-6.6
		c-1.9,0-3.4,1.5-3.4,3.4c0,1.9,1.5,3.4,3.4,3.4h6.6c3.3,0,6.2-1.7,7.9-4.5c1.6-2.8,1.6-6.2,0-9.1l-1.7-3l2.2-1.3
		C71.1,77.6,71.4,76.9,71.4,76.3z"/>
</g>
</svg>
