<?xml version="1.0" encoding="utf-8"?>
<!-- Generator: Adobe Illustrator 21.0.2, SVG Export Plug-In . SVG Version: 6.00 Build 0)  -->
<svg version="1.1"
	 id="Calque_1" xmlns:cc="http://creativecommons.org/ns#" xmlns:dc="http://purl.org/dc/elements/1.1/" xmlns:rdf="http://www.w3.org/1999/02/22-rdf-syntax-ns#" xmlns:svg="http://www.w3.org/2000/svg"
	 xmlns="http://www.w3.org/2000/svg" xmlns:xlink="http://www.w3.org/1999/xlink" x="0px" y="0px" viewBox="0 0 100 125"
	 style="enable-background:new 0 0 100 125;" xml:space="preserve">
<style type="text/css">
	.st0{fill:none;stroke:#000000;stroke-width:1.7563;stroke-linecap:square;stroke-linejoin:round;}
	.st1{fill:none;stroke:#000000;stroke-width:0.5854;stroke-linecap:round;}
	.st2{fill:none;stroke:#000000;stroke-width:0.5851;stroke-linecap:round;}
	.st3{stroke:#000000;stroke-miterlimit:12;}
</style>
<g transform="translate(0,-952.36216)">
	<path class="st0" d="M25.8,1006.7c-1.7-6.4,1.1-13.2,6.8-16.5s13-2.4,17.7,2.3"/>
	<path class="st0" d="M49.4,997.6c2.7-10.3,12.9-16.7,23.3-14.9s17.8,11.4,16.9,22c-0.9,10.6-9.8,18.7-20.4,18.7h-0.8H29.3
		c-4.9,0-6.9-0.6-9.6-2.2c-2.7-1.6-4.7-2.9-7-5.2l-0.4-0.4c-3.4-3.4-3.4-9,0-12.4c3.4-3.4,9-3.4,12.4,0"/>
	<path class="st1" d="M23,1001.6l-3.4,1.6"/>
	<path class="st1" d="M23.5,1002.6l-3.4,1.6"/>
	<path class="st1" d="M24,1003.7l-3.4,1.6"/>
	<path class="st1" d="M24.6,1004.7l-3.4,1.6"/>
	<path class="st1" d="M25,1005.7l-3.4,1.6"/>
	<path class="st1" d="M25.5,1006.7l-3.4,1.6"/>
	<path class="st2" d="M47.9,990l-3.4,1.6"/>
	<path class="st2" d="M48.4,991.1l-3.4,1.6"/>
	<path class="st2" d="M48.9,992.1l-3.4,1.6"/>
	<path class="st2" d="M49.5,993.1l-3.4,1.6"/>
	<path class="st2" d="M50,994.1l-3.4,1.6"/>
	<path class="st2" d="M50.4,995.1l-3.4,1.6"/>
	<path class="st1" d="M22.1,1000.8l-2.9,1.3"/>
	<path class="st2" d="M50.3,996.4l-2.7,1.3"/>
	<path class="st2" d="M46.6,989.3l-2.6,1.2"/>
	<path class="st2" d="M45.4,988.8l-1.8,0.8"/>
	<path class="st3" d="M43.9,1023.4l-1.6,17.4l5.2-4l-2.8,17L54,1029l-6.8,3.2l6.6-8.8"/>
</g>
</svg>
