<?xml version="1.0" encoding="utf-8"?>
<!-- Generator: Adobe Illustrator 21.0.2, SVG Export Plug-In . SVG Version: 6.00 Build 0)  -->
<svg version="1.1"
	 id="Calque_1" xmlns:cc="http://creativecommons.org/ns#" xmlns:dc="http://purl.org/dc/elements/1.1/" xmlns:inkscape="http://www.inkscape.org/namespaces/inkscape" xmlns:rdf="http://www.w3.org/1999/02/22-rdf-syntax-ns#" xmlns:sodipodi="http://sodipodi.sourceforge.net/DTD/sodipodi-0.dtd" xmlns:svg="http://www.w3.org/2000/svg"
	 xmlns="http://www.w3.org/2000/svg" xmlns:xlink="http://www.w3.org/1999/xlink" x="0px" y="0px" viewBox="0 0 100 125"
	 style="enable-background:new 0 0 100 125;" xml:space="preserve">
<g transform="translate(0,-952.3622)">
	<path d="M49.2,969.9c-1.8,0-3.6,0.3-5.6,0.8c-3.7,1.5-4.7,1.8-3.7,3.6c0.6,0.8,1.2,1.6,1.7,2.4l0,0l0,0c2.7,4.3,4,8.6,4.3,13
		c1.5-0.1,3.8-0.1,7.1,0.2c3.5,0.3,5.9,0.8,7.3,1.2c1.2-3.4,3.3-5.6,6-7.7l0,0c0.2-0.2,0.5-0.4,0.8-0.6c1.3-1.1,1.5-1.6,0.2-3.7
		c-1.1-1.9-3.2-3.5-7.8-4.5c0,0-2.9,11.6-4.4,11.2c-1.5-0.5,3.1-13.2,3.1-13.2c-2.3-1.6-4.9-2.6-7.6-2.8l0,0
		C50.1,969.9,49.6,969.9,49.2,969.9L49.2,969.9z M50.5,969.9L50.5,969.9L50.5,969.9L50.5,969.9z M47.5,991c-1.1,0-1.9,0.1-2.5,0.1
		c-0.7,0.1-1.3,0.7-1.3,1.5c0.1,0.7,0.7,1.3,1.5,1.3l0,0c1.3-0.1,3.7-0.2,7.4,0.2c3.9,0.4,6.3,1,7.5,1.3c0.7,0.2,1.5-0.2,1.7-0.9
		s-0.2-1.5-0.9-1.7l0,0c-1.3-0.4-3.9-1-8-1.4C50.6,991.1,48.9,991,47.5,991L47.5,991z M45.1,994.9c-0.3,0-0.6,0-0.8,0
		c-12.3,2.9-22.3,14.6-24.8,29.6c0.1,0,0.3,0,0.4,0c3.2,0,6,0.5,8.3,1.4c1.1,0.5,2.1,1,3,1.8c0.8,0.8,1.5,2,1.5,3.3v3.1v3.1v3.1v3.1
		v3.1v3.1v3.1v0.4c4.2,1.7,9,2.7,14.2,3.2c7.7,0.7,14.9,0.2,20.5-2.5v-1.1v-3.1v-3.1v-3.1c0-1.3,0.7-2.5,1.5-3.3s1.8-1.4,3-1.8
		c2-0.8,4.5-1.3,7.2-1.4c0.2-1.1,0.3-2.2,0.4-3.3c1.6-16.6-6.3-31.4-18.5-37c-2-0.4-5.7-1-8.3-1.3C50.3,995,47.2,994.9,45.1,994.9
		L45.1,994.9z M49.6,1004.9l5.4,0.6l-0.6,5.9c3.3,0.7,6.4,2.1,8.6,3.9l-3.4,5.6c-2.9-2-6.6-3.7-8.9-3.9c-1.8-0.2-3,0.4-3.2,1.7
		c-0.4,4.7,14.8,3.5,13.9,13.7c-0.5,5-4.6,7.6-9.8,7.8l-0.6,6.2l-5.4-0.5l0.6-6.3c-3.8-0.9-7.3-2.8-9.9-5.3l3.4-5.6
		c2.7,2.8,7,5,9.9,5.3c2.2,0.2,3.7-0.5,3.8-2c0.5-4.8-14.8-3.3-13.9-13.4c0.4-4.5,4-7.3,9.3-7.7L49.6,1004.9L49.6,1004.9z
		 M19.9,1026.7c-5.8,0-10.5,2-10.5,4.4l0,0c0,2.4,4.7,4.4,10.5,4.4l0,0c5.8,0,10.5-2,10.5-4.4l0,0
		C30.4,1028.7,25.7,1026.7,19.9,1026.7z M9.4,1034.1v3.1c0,2.4,4.7,4.4,10.5,4.4l0,0c5.8,0,10.5-2,10.5-4.4l0,0v-3.1
		c0,2.4-4.7,4.4-10.5,4.4l0,0C14.1,1038.5,9.4,1036.5,9.4,1034.1L9.4,1034.1z M80.1,1038.9c-5.8,0-10.5,2-10.5,4.4s4.7,4.4,10.5,4.4
		l0,0c5.8,0,10.5-2,10.5-4.4l0,0C90.6,1040.9,85.9,1038.9,80.1,1038.9L80.1,1038.9z M9.4,1040.2v3.1c0,2.4,4.7,4.4,10.5,4.4
		s10.5-2,10.5-4.4v-3.1c0,2.4-4.7,4.4-10.5,4.4S9.4,1042.6,9.4,1040.2L9.4,1040.2z M9.4,1046.3v3.1c0,2.4,4.7,4.4,10.5,4.4l0,0
		c5.8,0,10.5-2,10.5-4.4v-3.1c0,2.4-4.7,4.4-10.5,4.4S9.4,1048.8,9.4,1046.3L9.4,1046.3z M69.6,1046.3v3.1c0,2.4,4.7,4.4,10.5,4.4
		s10.5-2,10.5-4.4l0,0v-3.1c0,2.4-4.7,4.4-10.5,4.4l0,0C74.3,1050.7,69.6,1048.8,69.6,1046.3z M9.4,1052.5v3.1
		c0,2.4,4.7,4.4,10.5,4.4l0,0c5.8,0,10.5-2,10.5-4.4l0,0v-3.1c0,2.4-4.7,4.4-10.5,4.4l0,0C14.1,1056.8,9.4,1054.9,9.4,1052.5
		L9.4,1052.5z M69.6,1052.5v3.1c0,2.4,4.7,4.4,10.5,4.4s10.5-2,10.5-4.4v-3.1c0,2.4-4.7,4.4-10.5,4.4l0,0
		C74.3,1056.8,69.6,1054.9,69.6,1052.5z"/>
</g>
</svg>
