<?xml version="1.0" encoding="utf-8"?>
<!-- Generator: Adobe Illustrator 21.0.2, SVG Export Plug-In . SVG Version: 6.00 Build 0)  -->
<svg version="1.1" id="Calque_1" xmlns="http://www.w3.org/2000/svg" xmlns:xlink="http://www.w3.org/1999/xlink" x="0px" y="0px"
	 viewBox="0 0 48.9 106.7" style="enable-background:new 0 0 48.9 106.7;" xml:space="preserve">
<title>on top of the world</title>
<g>
	<g>
		<path d="M31.4,48.2l-5.2-14.7c1.3-0.8,2.1-2.3,2.1-3.9v-5.7c0-0.4-0.1-0.7-0.1-1.1c1.1-0.3,3.6-1.3,4.6-3.1c0.5-0.9,0.6-2,0.2-2.9
			c-0.6-1.7-1.8-3-3.4-3.8c-0.9-0.6-1.4-0.8-1.3-1.6c0-0.3-0.2-0.5-0.5-0.5l0,0c-0.3,0-0.5,0.2-0.5,0.4l0,0c-0.1,1.4,0.9,2,1.8,2.5
			c1.4,0.6,2.4,1.8,2.9,3.2c0.3,0.7,0.2,1.5-0.1,2.1c-0.8,1.5-3.1,2.4-4.1,2.7c-1.1-2.1-3.8-3-6.1-1.9c-0.8,0.4-1.5,1.1-2,1.9
			c-1.5,0.6-4.7,2.2-4.6,3.6c0,0.6,0.5,1,1.3,1.2c0.4,0.1,0.9,0.2,1.4,0.2c0.4,0,0.9-0.1,1.3-0.2v3c0,1.7,0.9,3.2,2.4,4l2.2,13.5
			C10.3,47.5-0.3,58.8,0,72.2s11.6,24.1,25.1,23.7s24.1-11.6,23.7-25.1C48.6,60.4,41.5,51.2,31.4,48.2L31.4,48.2z M16.8,25.7
			c-0.5-0.1-0.6-0.3-0.6-0.3c0-0.4,1.4-1.4,3.1-2.2c-0.1,0.3-0.1,0.6-0.1,0.9v1.6C18.4,25.9,17.6,25.9,16.8,25.7z M20.2,29.7v-3.4
			c0.7-0.3,1.3-0.6,2-0.9c1.3-0.6,2.5-1.2,3.3-0.8c0.3,0.1,0.5,0,0.7-0.2c0.1-0.3,0-0.5-0.2-0.7c-1.2-0.6-2.6,0.1-4.1,0.9
			c-0.5,0.2-1,0.5-1.5,0.7V24c0-2,1.6-3.6,3.6-3.6s3.6,1.6,3.6,3.6v5.7c0,2-1.6,3.6-3.6,3.6C21.8,33.3,20.2,31.7,20.2,29.7
			L20.2,29.7z M23.7,34.3c0.5,0,1-0.1,1.5-0.3l4.9,13.9c-1.8-0.4-3.6-0.7-5.4-0.7l-2.1-13.1C23,34.2,23.4,34.3,23.7,34.3L23.7,34.3z
			 M10.2,54.3c0.5,0.4,0.8,0.9,0.9,1.5c0.1,0.8-0.1,1.6-0.6,2.2c-1.1,1.3-1.8,2.8-2.1,4.5c0,0.2-0.1,0.5-0.2,0.7
			c-1.1,1.4-2.7,2.5-4.4,3.1c-0.4,0.2-0.9,0.2-1.3,0.2C3.8,61.7,6.5,57.4,10.2,54.3z M5.8,84.1c0.7,0.2,1.4,0.3,2.2,0.3
			c1,0,1.9-0.1,2.8-0.4c1.3-0.4,1.7-0.4,2,0.2c0.3,0.7,0.4,1.5,0.4,2.3c0.1,1.4,0.2,2.8,1.2,3.5c1.4,1,1.9,1.9,1.8,2.2
			c0,0.1-0.1,0.2-0.1,0.3C11.8,90.7,8.3,87.8,5.8,84.1z M16.9,92.8l0.1-0.2c0.4-0.9-0.4-2.2-2.1-3.4c-0.7-0.5-0.7-1.6-0.8-2.8
			c0-0.9-0.2-1.8-0.5-2.7c-0.7-1.3-2-1-3.1-0.7c-0.8,0.3-1.7,0.4-2.5,0.4c-1-0.1-2-0.3-3-0.7c-2.7-4.6-3.6-10-2.6-15.3
			c0.1,0,0.2,0,0.3,0c0.5,0,1.1-0.1,1.6-0.3c2.2-0.7,4.7-2.7,5-3.7c0.1-0.2,0.2-0.5,0.2-0.7c0.3-1.5,0.9-2.9,1.9-4.1
			c0.7-0.8,0.9-1.9,0.7-3c-0.1-0.7-0.5-1.4-1.1-1.9c8.6-6.4,20.5-5.9,28.4,1.3c-0.8,1-2.4,2.7-4,2.7c-1.1-0.1-2.2-0.2-3.2-0.4
			c-1.6-0.4-3.2-0.5-4.8-0.4c-3,0.3-4.3,1.3-5.2,2.2c-0.2,0.2-0.4,0.3-0.6,0.3S21.1,59,21,58.7c-0.4-0.8-1-1.5-1.9-1.8
			c-0.3-0.1-0.7,0-1,0.3c-0.8,0.8-0.9,2-0.4,3c0.3,0.5,0.4,1.1,0.3,1.8c-0.1,0.3-0.4,0.6-0.7,0.7c-1,0.2-1.7,1.1-1.7,2.1
			c0,0.6,0.4,1.1,1,1.2c0.7,0.1,1.6,0.6,1.7,0.9c0,0,0,0.2-0.3,0.3c-0.6,0.3-1.3,0.6-1.9,0.8c-2.7,0.9-6.9,2.3-7.9,5.1
			c-0.4,1.3-0.2,2.6,0.5,3.7c0.6,1.3,1.8,2.2,3.2,2.5c2.3,0.2,4.5-2,6-3.5c0.3-0.4,0.6-0.7,1-1c1.3-0.4,2.7-0.2,3.7,0.6
			c1.5,1.2,2.1,3.9,1.5,7.7c-1,6.7,0.3,8.6,1.5,9c0.2,0.1,0.4,0.1,0.6,0.1c0.9-0.1,1.8-0.6,2.2-1.5c0.6-1.2,1.1-2.4,1.5-3.7
			c0.7-2,2-5.3,2.6-5.6c0.5-0.2,1.1-0.4,1.6-0.5c1.6-0.3,3.2-0.7,3.6-1.7c0.2-0.4,0.1-0.9-0.2-1.2c-0.8-1-1.7-2-2.7-2.8
			c-0.5-0.4-1-0.8-1.4-1.3c-0.3-0.4-0.2-0.8,0.1-1.5c0.2-0.4,0.4-0.9,0.5-1.4c0.2-0.8-0.5-1.9-1.5-2.8c-0.9-0.8-4.1-3-9.1-1.2
			c-0.7,0.3-1.2,0.4-1.6,0.5c0.8-0.7,1.6-1.3,2.5-1.9l0.2-0.2c2.2-0.5,4.6-0.4,6.8,0.3c1.1,0.2,2.1,1,2.7,2l0.4,1
			c1.3,3.1,2.4,5.8,4.9,6.2c1.1,0.1,2.3-0.1,3.3-0.4c0.9-0.2,1.9-0.5,2.3-0.2c0,0,0.2,0.1,0.2,0.5c0.1,0.9-2,3.2-3.7,5.3
			c-2.5,2.9-5.1,6-5.2,8v2.6C30.8,94.2,23.5,95,16.9,92.8L16.9,92.8z M37.6,89.8v-1.9c0-1.7,2.7-4.8,4.9-7.3c2.5-2.9,4.1-4.8,4-6
			c0-0.5-0.2-0.9-0.6-1.2c-0.7-0.5-1.8-0.2-3.1,0.1c-1,0.3-2,0.4-3,0.4c-2-0.3-3-2.6-4.2-5.6l-0.4-1c-0.5-1.3-1.8-2.2-3.7-2.7
			c-2.8-0.8-6.5-0.6-7.3,0l-0.1,0.1c-3.3,2.3-3.7,2.9-3.4,3.5s1.1,0.5,3.4-0.3c4.5-1.6,7.3,0.4,8.1,1c0.9,0.8,1.3,1.6,1.2,1.9
			c-0.1,0.4-0.2,0.8-0.4,1.2c-0.5,0.8-0.5,1.8,0,2.5c0.5,0.5,1,1,1.5,1.4c1,0.7,1.8,1.6,2.5,2.5c0.1,0.1,0.1,0.2,0.1,0.3
			c-0.2,0.5-2,0.9-2.9,1.1c-0.6,0.1-1.2,0.3-1.8,0.5c-0.9,0.4-1.8,2.6-3.1,6.2c-0.4,1.2-0.8,2.4-1.4,3.5c-0.3,0.6-1,1.1-1.6,0.9
			c-0.3-0.1-1.9-1-0.9-7.9c0.6-4.3,0-7.2-1.9-8.7c-1.4-1-3.1-1.2-4.7-0.7c-0.5,0.3-1,0.7-1.4,1.2c-1.2,1.3-3.3,3.4-5.1,3.2
			c-1.1-0.2-2-1-2.4-2c-0.6-0.8-0.8-1.9-0.5-2.9c0.8-2.3,4.9-3.7,7.3-4.5c0.8-0.2,1.5-0.5,2.2-0.9c0.5-0.3,0.8-0.8,0.7-1.3
			c-0.2-1-1.9-1.5-2.5-1.6c-0.1,0-0.2-0.1-0.2-0.3c0-0.3,0.3-0.8,1-1.1c0.6-0.2,1.1-0.7,1.3-1.3c0.2-0.9,0-1.9-0.5-2.6
			c-0.2-0.6-0.2-1.2,0.2-1.7c0.3,0,1,0.7,1.2,1.2c0.2,0.6,0.7,1.1,1.3,1.3c0.6,0.1,1.1-0.2,1.5-0.6c1.2-1.2,2.9-1.9,4.6-1.9
			c1.5-0.1,3,0,4.5,0.4c1.1,0.2,2.2,0.4,3.4,0.4h0.1c2,0,3.7-1.8,4.7-3c8.8,8.7,8.9,22.9,0.3,31.7C39.6,88.2,38.7,89,37.6,89.8
			L37.6,89.8z"/>
		<path d="M23.4,19.1c2.3,0,4.2-1.9,4.2-4.2s-1.9-4.2-4.2-4.2s-4.2,1.9-4.2,4.2S21,19.1,23.4,19.1L23.4,19.1z M23.4,11.7
			c1.8,0,3.2,1.4,3.2,3.2s-1.4,3.2-3.2,3.2c-1.8,0-3.2-1.4-3.2-3.2C20.2,13.1,21.6,11.7,23.4,11.7C23.3,11.7,23.3,11.7,23.4,11.7
			L23.4,11.7z"/>
		<circle cx="22" cy="14.6" r="0.6"/>
		<circle cx="25" cy="14.6" r="0.6"/>
	</g>
</g>
</svg>
