<?xml version="1.0" encoding="utf-8"?>
<!-- Generator: Adobe Illustrator 21.0.2, SVG Export Plug-In . SVG Version: 6.00 Build 0)  -->
<svg version="1.1" id="Calque_1" xmlns="http://www.w3.org/2000/svg" xmlns:xlink="http://www.w3.org/1999/xlink" x="0px" y="0px"
	 viewBox="0 0 24 30" style="enable-background:new 0 0 24 30;" xml:space="preserve">
<path d="M0.1,8.7l0.4-0.9l0.1-0.3l0.3,0.1l6.7,1.9l0,0l0.2-0.6h2.6v4.2H9.7V15h0.8l1.1-9.4L11.7,5h0.7h3.4h0.7l0.1,0.7l0.9,6.1V11
	h3.1v4v0.7v1.6h-1.4v5.4c0.1,0,0.2,0,0.3,0c1.1-0.1,2.2-0.5,3.2-1.3l1.3,1.9c-1.4,1-2.9,1.6-4.5,1.7c-1.2,0.1-2.5-0.2-3.7-0.9
	c-1,0.5-2.1,0.9-3.2,0.9c-1.3,0.1-2.6-0.2-4-1.1c-1.1,0.6-2.2,1-3.4,1.1c-1.6,0.1-3.2-0.4-4.9-1.7l1.4-1.9c1.2,0.9,2.4,1.3,3.4,1.2
	c0.3,0,0.6-0.1,0.9-0.1v-5.2H5V15h2.7v-1.9H6.8v-1H6.7L0.3,9.2L0,9L0.1,8.7L0.1,8.7z M16.3,21.7v-4.4H8.9v3.9c1,0.9,2.3,1.5,3.7,1.5
	c1,0,2.6-0.7,3.4-1.4C16,21.5,16.2,21.6,16.3,21.7L16.3,21.7z M15.1,6.6l-1.6,1.2h1.8L15.1,6.6L15.1,6.6z M15.4,8.9L13.5,10h2.1
	L15.4,8.9L15.4,8.9z M15.7,10.9l-2.4,1.5H16L15.7,10.9L15.7,10.9z M16.1,13.5L13.3,15h3L16.1,13.5L16.1,13.5z M12,14.9l3-1.7h-2.8
	L12,14.9L12,14.9z M12.4,12.1l2.2-1.4h-2L12.4,12.1L12.4,12.1z M12.7,9.6l1.7-1h-1.6L12.7,9.6L12.7,9.6z M12.9,7.3l1-0.8H13
	L12.9,7.3L12.9,7.3z M1.7,8.5l0.1,0.2l0.1-0.2H1.7L1.7,8.5z M2.6,8.8l0.3,0.6L3.1,9L2.6,8.8L2.6,8.8z M3.8,9.1L4.2,10l0.3-0.6
	L3.8,9.1L3.8,9.1z M5,9.5l0.4,1l0.4-0.8L5,9.5L5,9.5z M6.3,9.9L6.7,11L7,10.1L6.3,9.9L6.3,9.9z M6.4,11.1l-0.4-1l-0.3,0.7L6.4,11.1
	L6.4,11.1z M5,10.5L4.7,9.7l-0.3,0.6L5,10.5L5,10.5z M3.8,10L3.4,9.2L3.2,9.7L3.8,10L3.8,10z M2.5,9.4L2.2,8.8L2,9.1L2.5,9.4
	L2.5,9.4z M1.4,8.9L1.3,8.4L1.1,8.3L0.9,8.7L1.4,8.9L1.4,8.9z M9.1,9.6H8.3l-0.6,1.9h1.4C9.1,11.5,9.1,9.6,9.1,9.6z"/>
</svg>
