<?xml version="1.0" encoding="utf-8"?>
<!-- Generator: Adobe Illustrator 21.0.2, SVG Export Plug-In . SVG Version: 6.00 Build 0)  -->
<svg version="1.1"
	 id="Calque_1" xmlns:cc="http://creativecommons.org/ns#" xmlns:dc="http://purl.org/dc/elements/1.1/" xmlns:inkscape="http://www.inkscape.org/namespaces/inkscape" xmlns:rdf="http://www.w3.org/1999/02/22-rdf-syntax-ns#" xmlns:sodipodi="http://sodipodi.sourceforge.net/DTD/sodipodi-0.dtd" xmlns:svg="http://www.w3.org/2000/svg"
	 xmlns="http://www.w3.org/2000/svg" xmlns:xlink="http://www.w3.org/1999/xlink" x="0px" y="0px" viewBox="0 0 100 125"
	 style="enable-background:new 0 0 100 125;" xml:space="preserve">
<g transform="translate(0,-952.36216)">
	<path d="M58.9,986c-0.1,0-0.1,0-0.2,0l0,0c-1.5,0-3.1,0.4-4.5,1c-2.5,1.1-4.8,3.5-5.5,6.6c-0.4,2.1-0.1,4.1,0.9,5.9
		c1.1,1.9,3.4,3.6,6.1,3.5c1.9-0.1,3.4-1.7,3.3-3.6c-0.1-1.8-1.6-3.3-3.4-3.3c-0.1-0.2-0.2-0.9-0.2-1.1c0.2-0.9,0.7-1.4,1.6-1.8
		c0.9-0.4,2.2-0.5,3.1-0.2c3.2,1.1,4.6,5.2,3.4,8.4c-1.3,3.4-4.7,5.4-8.4,5.4H15.4c-1.9,0-3.5,1.5-3.5,3.4s1.5,3.5,3.4,3.5h0.1h39.8
		l0,0c6.2,0,12.4-3.5,14.8-9.8c2.6-6.7-0.3-15-7.7-17.4C61.2,986.2,60.1,986,58.9,986L58.9,986z M83.1,995.6c-0.1,0-0.1,0-0.2,0l0,0
		c-1.5,0-3.1,0.4-4.5,1c-2.5,1.1-4.8,3.5-5.5,6.6c-0.4,2.1-0.1,4.1,0.9,5.9s3.4,3.6,6.1,3.5c1.9-0.1,3.4-1.7,3.3-3.6
		c-0.1-1.8-1.6-3.3-3.4-3.3c-0.1-0.2-0.2-0.9-0.2-1.1c0.2-0.9,0.7-1.4,1.6-1.8c0.9-0.4,2.2-0.5,3.1-0.2c3.2,1.1,4.6,5.2,3.4,8.4
		c-1.3,3.4-4.7,5.4-8.4,5.4H8.5c-1.9,0-3.5,1.5-3.5,3.4s1.5,3.5,3.4,3.5h0.1h70.8l0,0c6.2,0,12.4-3.5,14.8-9.8
		c2.6-6.7-0.3-15-7.7-17.4C85.3,995.8,84.2,995.6,83.1,995.6L83.1,995.6z M15.4,1026.1c-1.9,0-3.5,1.5-3.5,3.4s1.5,3.5,3.4,3.5h0.1
		h51.8c3.7,0,7.1,1.9,8.4,5.4c1.3,3.3-0.1,7.4-3.4,8.4c-0.9,0.3-2.2,0.2-3.1-0.2c-0.9-0.4-1.4-0.9-1.6-1.8c0-0.2,0-0.8,0.2-1.1l0,0
		c1.9-0.1,3.4-1.6,3.3-3.5c0-1.8-1.5-3.3-3.3-3.3c-2.7-0.1-5,1.6-6.1,3.5s-1.4,3.9-0.9,5.9c0.7,3.1,2.9,5.5,5.5,6.6s5.4,1.3,8.1,0.4
		c7.4-2.4,10.2-10.8,7.7-17.4c-2.4-6.3-8.7-9.8-14.8-9.8l0,0H15.4L15.4,1026.1z"/>
</g>
</svg>
