<?xml version="1.0" encoding="utf-8"?>
<!-- Generator: Adobe Illustrator 21.0.2, SVG Export Plug-In . SVG Version: 6.00 Build 0)  -->
<svg version="1.1" id="Calque_1" xmlns="http://www.w3.org/2000/svg" xmlns:xlink="http://www.w3.org/1999/xlink" x="0px" y="0px"
	 viewBox="0 0 100 125" style="enable-background:new 0 0 100 125;" xml:space="preserve">
<title>Artboard 49</title>
<path d="M50.5,45.2c-14.9,0-27.9,7.8-36.3,14.4c-3.8,3-4.5,8.6-1.5,12.5c0.6,0.7,1.3,1.4,2.1,1.9c8.6,5.7,25.5,15.2,41.6,15.2
	c16.8,0,28.4-10.1,33.8-16.2c3.2-3.6,3.4-9,0.3-12.8C85.1,53.4,73.6,45.2,50.5,45.2z M16.5,71.5c-2.7-1.8-3.5-5.4-1.7-8.1
	c0.3-0.5,0.8-1,1.3-1.4c1.4-1.1,2.9-2.2,4.5-3.3c-1.6,5.8-1.5,11,0.4,15.7C19.4,73.3,17.8,72.4,16.5,71.5L16.5,71.5z M88.1,71
	c-5.1,5.7-16,15.2-31.6,15.2c-11,0-22.5-4.7-31.1-9.4c0-0.3-0.1-0.6-0.2-0.9c-3.3-5.5-3.5-11.8-0.8-19.2c0.1-0.2,0.1-0.4,0.1-0.6
	c7.2-4.3,16.2-8,26-8c22,0,32.7,7.6,37.8,14C90.4,64.8,90.3,68.5,88.1,71L88.1,71z"/>
<path d="M51.5,49.2c-9.9,0-18,8.1-18,18s8.1,18,18,18s18-8.1,18-18S61.4,49.2,51.5,49.2z M51.5,82.2c-8.3,0-15-6.7-15-15
	s6.7-15,15-15s15,6.7,15,15S59.8,82.2,51.5,82.2L51.5,82.2z"/>
<path d="M51.5,61.9c-2.9,0-5.3,2.4-5.3,5.3c0,2.9,2.4,5.3,5.3,5.3s5.3-2.4,5.3-5.3C56.8,64.3,54.4,61.9,51.5,61.9L51.5,61.9z
	 M51.5,69.5c-1.3,0-2.3-1-2.3-2.3c0-1.3,1-2.3,2.3-2.3s2.3,1,2.3,2.3C53.8,68.5,52.8,69.5,51.5,69.5L51.5,69.5z"/>
<path d="M58.5,97.2c-16.6-0.6-33.9-11.1-42.7-17.4c-0.7-0.5-1.6-0.4-2.1,0.3c-0.5,0.7-0.4,1.6,0.3,2.1c0,0,0,0,0.1,0
	c9.1,6.5,26.9,17.4,44.3,18l0,0c0.8,0,1.5-0.7,1.5-1.5S59.3,97.2,58.5,97.2L58.5,97.2z"/>
<path d="M45.9,38.4c0.8-0.1,1.4-0.9,1.3-1.7c-0.1-0.8-0.9-1.4-1.7-1.3C29,37.8,15.9,48.5,7.7,57.1c-0.6,0.6-0.5,1.6,0.1,2.1
	s1.6,0.5,2.1-0.1l0,0C17.7,50.9,30.3,40.6,45.9,38.4z"/>
</svg>
